<svg width="22" height="45" xmlns="http://www.w3.org/2000/svg"><path d="M9.376 26.01c.004-.009.017-.015.036-.015a2.277 2.277 0 0 1-.01.021l-.026-.006zm.026.006c-.175.34-.452.68-.452 1.019-.058 0-.173.057-.173.115-.231.636-.578 1.213-.809 1.79-.404.983-1.04 1.85-1.386 2.774 0 .058-.058.058-.058.058 0 .115.058.288-.173.346-.058.404-.52 1.04-.462 1.271-.116.058-.231.347-.231.462-.174.058-.058.173-.116.289-.173.058-.058.173-.115.289-.116.346-.463.924-.52 1.27-.058.29-.347.463-.29.636-.288.289-.23.867-.461 1.155-.116.694-.636 1.56-.636 2.427.231-.578.347-1.33.578-1.907.115-.057 0 .058.115.058-.057-.115.116-.289.174-.347 0 .174-.058.347-.174.578-.057 0 0-.115-.115-.058.115.116 0 .174-.058.231 0 .058.116.174.116.231l-.116.405c-.115.289-.115.693-.346 1.097-.058.231-.058.52-.174.751 0 .058-.115.116-.115.174-.058.057.057.346-.116.404.173.173 0 .347-.058.52-.057.289.058.578-.057.866 0 .058-.058.058-.058.116 0 .462-.058 1.04-.058 1.502.058.173.058.289.058.462-9.936-.289 6.7-24.493 10.86-36.566-.751.289-1.618 2.137-2.253 2.137-.924-.115-.52-1.848-1.04-2.773 2.08-3.466 4.795-5.256 7.279-7.798.75.404 3.35 2.022 3.408 3.293-.635 1.848-1.27 3.639-2.08 5.372v.173c-.404.29-.635.693-.924 1.04-.346.347-.577.809-.809 1.098l-.057.115c-.058.231-.347.405-.462.636-.058.173 0 .346-.29.404.174.115-.115.231-.23.289 0 .058.115.173.115.173-.058.231-.289.404-.346.578-.174.346-.405.635-.52.866 0 .116-.058.231-.174.347-.057.058-.173.058-.23.115 0 0 .052.105-.094.165.036.054.042-.046.151.009l-.289.462c-.051-.103-.057-.251.024-.283-.011-.005-.025.032-.14-.006.232-.52.636-1.04.867-1.56-.577.578-.75 1.329-1.213 1.849.116.289-.404.635-.346.982-.232.115-.116.289-.29.52-.23.23-.346.75-.461 1.04-.058.057-.231.115-.116.23-.058.058-.173.116-.115.232-.174.057-.29.23-.174.346-.289.174-.346.751-.635 1.04.173.116-.058.173-.116.289l.058.058c-.52.693-.693 1.56-1.213 2.31-.231.462-.404.982-.751 1.444-.058.058 0 .116 0 .174-.289.23-.347.52-.52.808h.116v.232c0-.058-.058-.116-.058-.116 0 .058 0 .116-.116.231h.058c0 .058 0 .058-.058.116-.057-.058.058-.116-.057-.174 0 .174-.232.29-.116.52-.097.049-.112.097-.115.145-.011-.025-.048-.034-.057-.071-.003.101-.06.157-.117.157h.173c.036 0 .028-.044.03-.078.006.09-.081.142-.03.194-.057.115-.057.173-.173.289-.077 0-.103-.026-.094-.043l.026.006zm.296-.449a.173.173 0 0 0 .003-.034c-.022 0-.027.016-.028.037l.025-.003zm-.11-.076a.073.073 0 0 1-.002-.01l.001.01zm.056.071v.029l-.002-.017.002-.012zm5.51-10.71a.093.093 0 0 1 .035-.006c-.02-.02-.026-.02-.032-.013l-.002.02zm-5.164 11.2l9.07-16.925c-5.257 12.247-13.056 22.876-15.713 35.7.115-1.329.404-2.658.75-4.044.463-1.79 1.04-3.64 1.792-5.43a87.635 87.635 0 0 1 4.101-9.3zm-.728-.828a.236.236 0 0 0-.023.02v-.01l.023-.01zm-.023.01c0-.048.008-.052.116-.106h.057c0-.057-.057-.057-.057-.057 0 .057-.058 0-.058 0h-.058c-.173.115-.231.173-.231.23l-.173-.057v.058c.057.057.115.057.115.057v.058l-.115-.058c0 .058-.174.116-.116.232.116.057.116.057.173 0 0 .115-.057.288-.23.346-.058.058 0 .058.057.116-.173.057-.289.23-.115.288-.174.116-.174.232-.29.405.174.115.232-.116.463-.058l-.347.173c.058 0 .058 0 .174.058-.058.058-.231-.058-.347-.058.058.058-.231.231-.231.405.173 0 .289-.174.231-.231l.116-.058c.115.058-.116.115.057.115h-.115c.103.052.068.103.14.154-.12.055-.042-.038-.198-.038.058.058 0 .058.058.115a.124.124 0 0 0-.116.116c-.115-.058 0-.058-.115-.116 0 .116-.29.174-.174.29-.288.115-.173.461-.346.52.115 0-.116.057.058.115-.116.058-.174.289-.116.404-.115 0-.115.173-.231.173 0 .058 0 .058.058.116 0-.116.23-.116.058-.173h.115c.058.057 0 .115 0 .173-.058 0-.173.058-.231 0 .058.058-.058.173-.115.289h.115c-.173.058-.347.173-.231.289 0 .057-.116 0-.116.057.174.174 0 .29-.057.463h.057c.058.057-.23.057-.057.115h-.174c0 .058.058.058 0 .116.116 0 .174-.058.174.057.115-.057.173 0 .23 0 .116-.173.059-.346.232-.462l-.173-.058.115-.057c.116 0-.058.057.058.057.115-.057-.058-.115.115-.173h-.115c.058-.058.173-.115.173-.23 0-.348.52-.694.578-1.04-.058 0-.058-.058-.116-.058.116-.058.174 0 .174-.116l-.058-.058h.173c-.058-.115.116-.289 0-.404.116-.058.289-.289.289-.405.115-.115.173-.288.115-.346.174-.173.463-.636.463-.867.115 0 .173-.173.23-.288-.113 0-.003-.056-.11-.058.226-.058.11-.29.342-.462-.053-.053-.105-.058-.157-.058.012-.005.041-.017.041-.058h.116c.115-.058 0-.115.057-.173h-.057l.057-.058c0-.058.174-.173.174-.289h.058c-.058-.058.115-.173 0-.289.23-.115.404-.52.346-.693.173-.058.173-.115.289-.23.058-.116.115-.29 0-.405.173-.058.173-.231.347-.231-.116 0-.116-.058-.174-.116h.174c.115-.058 0-.058-.058-.115.058 0 .058-.058.115 0 .29-.231.058-.694.405-.925.115-.057.057-.115 0-.23l.115.057c-.115-.058.058 0 .058-.115-.058-.058-.058 0-.173 0l.057-.116.174.058c-.058-.116.115-.231.173-.347-.058-.058-.231-.058-.173-.115-.174 0-.116-.058-.231-.116.057.058-.058.058-.058.058 0 .058.058.058.115.115-.173-.057.116.116-.057.116h-.058c-.116.115-.058.231-.289.231-.058.058.116.058 0 .116-.173-.058-.115.173 0 .288l-.115-.057c-.058.057-.058.173-.174.23h.058c-.058 0-.116 0-.173.058.115.058 0 .116.115.174-.173.058-.289.23-.23.346-.174-.057-.059.058-.174 0 .058.116-.289.29-.116.462-.173 0-.057.232-.057.29.115.057 0-.058.115 0 0 .057-.058.115 0 .115-.058 0-.058.058-.115.058.115.057.173 0 .23.057-.115 0-.115.058-.23 0l-.058.058s.058.058 0 .058l-.116-.058c.174-.058.116-.23 0-.289-.115.058 0 .347-.115.347-.058.058 0 .058.058.058a.82.82 0 0 0 .147.23c-.143-.059-.092-.145-.263-.23-.058.23-.173.289-.116.404-.173 0-.288.173-.057.231.11 0-.046-.107-.057-.115.172 0 .23 0 .114-.116.174.058.174.116.232.116-.116.115.057.115.115.173l-.289-.058c.058.058.058.116 0 .173l-.058.058c.058 0 .116 0 .116.058-.116-.058-.058.115-.058.115-.058.058-.058 0-.173 0l.115-.115v-.058c0-.058-.057-.058-.115-.058.115-.057 0-.115 0-.173h-.173c.057.116.057.289-.058.347.058 0-.058.057.058.057h.057l.058.058v-.058c.116.058.231.058.231.116s-.173.173-.289.231c-.115-.115.231-.173.058-.231 0 0-.058 0-.058-.058h-.057c-.058 0-.116-.058-.174-.058l.116.116-.173-.058c0 .174-.058.174-.058.347l.115.058c0-.116.058-.116.058-.174l.116.058c.057.058.057.116.173.116v.057H9.47l-.058-.057v.057c-.05.05-.1.057-.15.096l-.023.01zm.29-1.145h-.001zm.493-.29a.335.335 0 0 0 .084.059.348.348 0 0 1-.147-.056l.063-.004zm-.593 1.445h-.017l.012-.002.005.002zm-.184.52a.32.32 0 0 0-.006 0h.006zm-.79 1.482l.033.02a.413.413 0 0 1-.045.012l.013-.032zm-2.45 4.583c.057.058.057.058-.116.116.173.058.173-.116.346-.058v-.058c-.058-.057 0 .058-.115 0 .057-.057.346-.173.23-.289.059 0 .232-.173.116-.288a.124.124 0 0 0 .116-.116c.173 0 0 .116.115.116-.115-.058-.115.115-.057.115l.057-.115c0-.116.174-.174.058-.231.173-.058.058-.116.116-.232l-.29-.057.059.057c-.116 0-.116.058-.231.174h.173c-.058.058-.173.115-.116.173-.289.058-.23.404-.404.462l.173.058c-.115.058-.173.058-.058.116-.115 0-.057.057-.173.057zm6.021-12.141l.044.01a.094.094 0 0 1-.044-.01zm0 0l-.187-.047c.115.115-.29.346 0 .462-.116.057-.058.115-.058.173l-.116-.058c-.057.116-.115.174-.057.231l.346.058c0-.058.173-.058 0-.173.173.058.116-.116.173-.116-.115-.058-.057.058-.173 0 .058-.058.058-.115 0-.173.116 0 .173-.173.116-.231.173 0 .057-.173 0-.289.115.058.057.058.173.116v-.058c-.231-.058-.116-.116-.231-.174 0 .058 0 .058-.058.116.058 0 0 .058.058.058-.043.042-.022.085.014.105zm-7.408 15.26c.173.059-.058.232.115.29-.289.057-.173.23-.23.288-.059.058-.232.174-.116.29-.116.057-.058.172-.174.288.29-.116.29-.462.405-.52-.116-.058.173-.173.115-.347.116-.23.116-.404.29-.577 0-.116.057-.347.115-.347-.231-.115-.174.116-.231.174-.174.057-.116.288-.058.404-.057 0-.113.055-.223.058h-.008zm8.951-18.14a.535.535 0 0 0 .003.002l-.003-.001zM4.214 36.105c.057.058.115.116 0 .116 0 .057.115.057 0 .115v.058l-.116-.058c-.116.173 0 .289-.173.462.173 0 .115-.058.23 0 .116 0-.057.116 0 .173h.116c-.058-.057.116-.288.173-.462-.057 0-.115.058-.115 0h-.058c.058 0 .058-.057.058-.115h-.116c.058 0 .116-.116.116-.116.173 0 0 .116.115.116l.116-.173c-.173-.058-.058.057-.116 0 0-.056-.106-.058-.216-.11l-.014-.006zm5.314-9.763c.115-.52.578-1.04.693-1.501a.77.77 0 0 1 .289-.347l-.058.231c-.23.231-.23.404-.346.578-.174.173-.231.346-.29.577l.059.058c-.116.116-.174.231-.347.404zM3.52 38.184h.174c0-.231-.058-.347.115-.463.058-.173.116-.52.231-.693l.058-.115c-.116-.058-.116.057-.231 0 0 .057.058.115.115.115-.115.058-.115.174-.173.174 0 .23-.289.577-.231.866.058.058-.058.058-.058.116zM13.976 15.48c.058.174-.173.231-.116.347l.174.116c.057-.058.057-.116 0-.116h.115c.058 0 0 .058.116.058.115-.116.058-.347.173-.347-.058-.058-.058-.058-.115-.058-.058 0 0 .116-.116.116s-.058-.058-.231-.116zm.173-.346c.174.115-.115.173.116.23.058-.115.23-.404.289-.461-.116-.231.057-.231.173-.405l-.116-.057c-.057 0 0 .057 0 .057-.288.174-.23.578-.462.636zm-1.207 2.727a.142.142 0 0 0-.006-.012l.009.008-.003.004zm.05.219h.002-.002zM5.08 33.967l.115.057c-.115 0-.173.116-.173.231h.116c.057-.057.057-.288.173-.288.058-.058-.058-.058-.116-.058.116-.058 0-.173.174-.173 0 0 0-.058-.058-.116.173-.058.173-.173.173-.231-.346.115-.115.347-.404.578zm3.64-7.914h.057c.058.115-.116.115-.116.173.058.058.058.115-.057.115.115.058.173 0 .23 0 .058-.115.116-.057.29-.115l-.29-.058c.058 0 .116-.058.174-.115-.058 0 0-.058 0-.116-.116-.058-.231 0-.231.058v.058h-.058zm3.06-5.142c0-.115.174-.23 0-.346-.057.058.059.173-.115.173l.058-.115c-.173-.058-.115-.058-.173-.116-.116.058 0 .116 0 .116a.124.124 0 0 0-.116.115l.347.173zm-4.91 9.82c.116-.057.116-.288.232-.346-.116 0-.29-.058-.347-.058-.058.116 0 .174.058.231-.058 0-.173-.057-.231.058.115 0 .173-.058.23 0l.059-.115c.173.057-.058.115 0 .23zm-.75 1.445c-.231 0-.405.404-.347.52.173-.058.173-.347.347-.52zm6.238-12.882c0-.116.232-.289.116-.404-.116 0-.347.288-.116.404zM5.195 31.483c0 .173-.23.23-.23.404h.173c0-.115.057-.231.173-.289-.116-.058 0-.058-.116-.115 0 0 .116-.116 0-.116-.057.058-.115.116 0 .116zm.52 1.444c-.115 0-.173 0-.288.115.115 0 .115-.057.23-.057-.173.057-.173.115-.173.23.116 0-.057.058.116.058-.058-.057-.058-.115.115-.173-.057-.058 0-.115 0-.173zm6.866-14.336a.108.108 0 0 0 .009.01h-.01v-.01zm-.001.01c-.1-.004.006-.058-.106-.058-.058.058-.058.116.116.173.057-.115.115-.115.173-.115-.116-.116-.116-.174 0-.174-.116-.115 0 .058-.173 0 0 .055-.052.11-.01.164v.01zm2.609-4.968c-.347-.116-.289.115-.231.23.173-.057.115-.172.231-.23zm-3.986 5.372l-.23-.058c0 .116.115.174-.059.29.116.057.058 0 .174.057 0-.173 0-.231.115-.289zm2.542-3.061c.115.057.058.115 0 .115.115 0 .23.058.289 0 .057 0-.058.058.057.058L14.15 16c-.115-.057-.058.058-.23 0 0-.057.057-.057 0-.115 0 .058-.174.058-.174.058zM3.462 35.237c.174 0 .29-.057.29-.23-.058.057-.174 0-.232.057 0 .058.058.058.116.058 0 .058-.174 0-.174.115zm5.893-9.878h.057l-.115.347c-.058.058-.173 0-.173-.058.23 0 .173-.173.23-.289zm6.556-13.228h-.029.03zm0 0h.087l.058-.058c-.058-.058-.116-.058-.174 0v.058c-.058 0 0 .058 0 .058 0 .057-.173.115 0 .173 0 0 .058-.058.058-.116.058 0 .058-.057 0-.115h-.029zM3.347 38.935c-.116.057-.289.288-.058.346-.058-.173.058-.23.058-.346zm-.433 1.162c-.015.05 0 .108.029.166a.268.268 0 0 0 .122-.144l-.151-.022zm6.094-14.16l.116-.231c.288.116-.116.173-.058.289 0 0 0-.058-.058-.058zm6.383-12.976c-.029.036-.029.065.03.094.057 0 .115-.043.144-.094h-.174zM3.231 38.877h.174s-.058-.058.057-.058c0-.116-.057-.058.058-.116l-.173-.057c.058.057-.058.115.058.173H3.23v.058zm-.346 1.617c.115 0 .23-.173.058-.23a.124.124 0 0 1-.116.115c0 .057.058.057.058.115zm9.425-24.216c.036.02.106.033.106.07-.058 0-.173-.058-.115 0 0 .044.068.054.1.083.103-.033.078-.105-.014-.16l-.077.007zm.09.153c.01.009.016.019.016.032.01-.005.02-.01.027-.016l-.043-.016zm2.442-2.567v.058c.058 0 .174.057.174.057-.116 0-.174.058-.29.058l.232.058c.058-.116 0-.058.115-.116-.115 0-.057-.057-.057-.057l-.174-.058zm.636-1.155a.179.179 0 0 1 .058.115c.173.058.23-.115.057-.173.058.058-.057.058-.115.058zM2.812 40.793c.002.015.007.03.015.048a.11.11 0 0 1 .016-.048h-.031zm8.045-18.9c-.058.058.057.174-.058.174l-.116-.058c.231 0-.058-.116.058-.173.116 0 .058.057.116.057zM4.705 32.756c.014-.027.022-.101.144-.06 0-.058 0-.116-.173-.174.05.102.1.114.035.194l-.006.04zm-1.38 7.652c-.007.057-.007.115-.036.144.087 0 .101-.043.101-.101l-.065-.043zm8.167-22.145c-.003.107-.06.108-.173.164.173.058.23 0 .23-.057-.114-.058.115-.058-.055-.115l-.002.008zM2.885 37.375c0-.058.058-.116-.058-.116 0 .058.058.116-.116.058l-.057.116c.115 0 .115-.058.23-.058zm10.398-20.912s-.058.058 0 .116c-.116 0-.116.058.058.115v-.115c.057-.058 0-.116-.058-.116zM3.116 39.403c0 .051.029.11 0 .11.058 0 .072-.03.087-.066l-.087-.043zm.924-1.797v-.116c0-.057.116-.115 0-.115 0 0-.115.115 0 .115-.115 0-.115.116 0 .116zm9.82-21.085l.116-.173-.058-.058c0 .116-.23.173-.058.231zM5.427 36.855c.173 0 0 .058.173.058 0-.058-.116-.058 0-.174-.114 0-.06.056-.168.113l-.005.003zm-.018-5.747a.124.124 0 0 1-.04.028c.032.016.055.019.071.013l-.031-.041zm9.693-17.641c-.043.036-.057.08.087.108-.029-.029 0-.058.022-.087l-.109-.021zm-.317.801c-.116-.057-.116.058-.174.116.058 0 .174.058.174 0-.174 0 0-.058 0-.116zm-1.87 2.954c-.008.036-.008.079-.037.108.087-.029.13-.072.145-.108h-.109zm2.852-4.802c-.058.058 0 .173-.058.173l.058.058c.057-.058 0-.231 0-.231zM4.56 35.93h.058l.115-.23c-.173 0-.115.173-.173.23zm11.943-24.745c-.014.036-.014.08-.043.08.058.028.087.014.108-.015l-.065-.065zm-11.85 23.38c-.035.037-.064.066-.035.095a.289.289 0 0 0 .123-.094h-.087zM15.51 16.282l.026.01v-.018l-.026.008zm.914-4.858c.007-.029.007-.072.036-.1-.029-.03-.043-.015-.058.014l.022.086zm-.31 1.343c0 .058-.232.174-.116.231 0-.057.23-.173.115-.23zm-1.907 2.715l.058-.057c-.174-.058-.174-.058-.231-.058.115.058.057.115.173.115zM3.405 35.815l.057-.115c-.057 0-.115 0-.23.057.115 0 .057.058.173.058zm-.412 3.986c-.022.029-.022.058.007.058.058.029.101.014.123-.015l-.13-.043zm9.654-23.857l.058-.116c-.115-.058-.058.058-.173 0l.115.116zm4.91-9.012l-.115.115c.173.058.173-.057.115-.115zm-4.168 7.741h.01-.01zM4.04 37.202h.058c0-.058.173-.174.058-.174l-.116.174zm8.723-21.836v.058l.115.057c.058-.057 0-.115-.115-.115zm2.527-2.217c-.014.022-.014.05.015.08a.152.152 0 0 0 .093-.037l-.108-.043zm-4.896 7.358l-.057.058.115.058c.058-.058.058-.116-.058-.116zm2.138-4.563c0 .057.058.057 0 .115.058 0 .115 0 .173-.058-.173 0 0-.057-.173-.057zM6.466 30.789c-.23 0-.115.116-.115.116v.058c.115-.058.058-.116.115-.174zm9.6-18.903a.049.049 0 0 1-.01.014l.027.006-.017-.02zM3.469 38.25c.041.06-.06.166.051.166.058-.058 0-.116 0-.116 0-.046-.037-.055-.052-.057l.001.007zm-.721 2.715c-.008.036-.008.079-.037.108.058 0 .087-.043.102-.087l-.065-.021zm10.708-24.558l.058-.116c-.173-.058-.116.058-.058.116zm1.04-1.098l-.058-.058-.115.174c.173.057.115-.116.173-.116zM9.355 24.32h-.058l-.116.115h.116l.058-.115zM2.48 42.112c.058.057-.057.173.058.173 0-.058.116-.173-.058-.173zm8.319-22.53c.058.059-.058.059-.058.059.058.057.116.115.231.057h-.115c0-.057.115-.115-.058-.115zm-1.907 5.893h.174c-.058.058-.116.058-.174.058v-.058zm6.326-11.51a.268.268 0 0 0 .029-.101c-.058 0-.058.014-.05.036l.02.065zM11.4 20.281c-.023.013-.01.027.091.053-.018-.018-.014-.03 0-.042l-.09-.01zm.784-.987v.115h.173c-.173-.057-.057-.057-.173-.115zM5.621 33.562a.297.297 0 0 0 .037-.115c-.03 0-.044.029-.058.072l.021.043zm-2.216 2.08c.115.058 0-.058.115-.058 0 0 0-.058-.115-.058.057.058 0 .058 0 .116zm9.011-16.81c.058 0 .116.058.174 0-.174 0-.058-.058-.058-.058-.116-.058-.058 0-.116.058zm1.567-2.65c-.022.021-.036.05-.065.05.087.03.116.03.13.015l-.065-.065zm-4.86 8.946h-.115s-.173.058-.058.116c0-.058.116-.058.174-.116zm-3.747 8.824c-.022.058-.007.072.05-.043.03-.029.058-.058.08-.087l-.13.13zm.628-1.95v.116c.058.058.058 0 .058 0 0-.058-.058-.058-.058-.115zm-3.34 9.502c-.01.034-.115.052-.068.146l.058-.058c-.036 0 .015-.043.034-.077l-.023-.011zm.835-2.512c-.022.044-.037.087.021.116 0-.03.03-.072.044-.116h-.065zm11.17-23.915v-.058c-.115-.058-.173.058 0 .058zM2.77 41.303l-.058-.058h-.115c0 .058.058.058.173.058zm1.567-5.878c-.021.03-.036.072-.065.101.058-.029.101-.043.13-.057l-.065-.044zm8.6-17.055c.058-.058.173-.116.116-.174 0 .058-.116.116-.116.174zm-2.401 1.697a.82.82 0 0 0 .148.093v-.057c-.074 0-.077-.024-.1-.04l-.048.004zM2.48 42.343c.058.058-.057.173.058.173 0-.058.058-.173-.058-.173zm.81-2.484l.057-.116-.058-.058v.174zm3.082-8.124c-.021.022-.021.037.037.037 0-.03.043-.058.072-.08l-.109.043zm9.749-18.998c-.008.015-.008.03-.008.03.03.028.044.028.05.014l-.042-.044zm-3.994 7.423l.058-.057c-.115-.058-.173.057-.058.057zm2.6-6.238h-.058l-.058.057v.058l.116-.115zM2.71 41.13c.058 0-.057.057 0 .057.116 0 .116-.115 0-.057zm2.08-5.777h.058v-.116H4.79v.116zm1.733-3.755l.058-.058c-.116-.057-.173.058-.058.058zm8.954-18.254h.058l.057-.058-.057-.058-.058.116zM5.282 34.219c0 .022 0 .036-.029.036.03 0 .044-.014.05-.036h-.02zm3.437-8.513l-.058.116h.058l.058-.116h-.058zm-5.488 12.94h-.057l-.058.115h.058l.057-.115zm2.037-7.315c-.015.022-.015.036.043.036 0 0 .014-.014.022-.036h-.065zm3.574-5.336c-.022.029-.036.058-.065.058a.15.15 0 0 0 .087-.036l-.022-.022zm-4.398 9.358v-.058c-.115-.058-.115.058 0 .058zm7.799-15.424v-.057c-.116-.058-.116.057 0 .057zm-3.35 5.662v-.058s.057 0 .115.058c-.058 0-.058.057-.116 0zm.577-1.214l.116-.057-.058-.058c-.058 0-.058.058-.058.115zm2.744-4.592c0 .014 0 .029-.029.029.058.029.072.029.072.014l-.043-.043zm.895-1.646l.058-.116c.116-.231-.115-.058-.058.116zM6.062 29.98l-.116-.058v.058c.058.058.116.058.116 0zm-2.946 6.296l-.058.058c.058 0 .116 0 .173-.058h-.115zm7.726-16.997c0 .014.015.043.015.072.057 0 .072-.015.072-.03l-.087-.042zM4.33 35.7v-.058c-.116 0-.173.058 0 .058zm6.564-16.305c-.008.014-.008.043-.036.072.057.03.086.015.1-.007l-.064-.065zm2.736-2.527l.058.058v-.116h-.058v.058zm.867-1.675c.115 0 .058-.058.058-.058-.058-.058-.058 0-.058.058zm1.56-3.178h.057c-.115-.057 0-.057-.173-.115.058.058.058.115.116.115zM5.669 32.805c.007.004.021.006.046.006v-.002l-.046-.005zM4.56 36.103s.058-.058-.058-.058c0 0-.058.058.058.058zm-1.908 5.292c-.017.012-.031.022-.056.022.046 0 .065-.009.077-.016l-.021-.006zM13.225 17.85c.058-.058.116-.116.058-.173 0 .057-.058.115-.058.173zm-4.044 7.625v.058h-.057c0-.058 0-.058.057-.058zm.174-.173l-.116-.058h.116v.058zM3.289 40.61s-.058.058 0 .058c0 0 .058-.058 0-.058zm5.835-14.962l-.116.116c-.058 0 0-.058.058-.116h.058zm-3.35 4.91v-.057c-.059 0-.059 0-.116.057h.115zm4.274-6.932c-.058 0-.116 0-.173-.057.057.057.115.057.173.057zm-.693 1.098c0 .058 0 .058.057.058l-.057-.058zm-.347.693c-.058 0-.116.058-.116.058l.058-.058h.058zm.693-.75h.058v.057l-.058-.058zm-.23 1.212l-.059.116c.058-.058.116-.058.058-.116zm6.411-13.69c0 .057 0 .057.058.057 0-.057-.058-.057-.058-.057zm-4.274 8.26l-.058-.057s0 .057.058.057zm-2.6 4.853c0 .057 0 .057-.058.057l.058-.057z" fill="#4B8A98" fill-rule="evenodd"/></svg>