<svg width="32" height="45" xmlns="http://www.w3.org/2000/svg"><path d="M2.227 41.586c.005-.015.007-.022-.014-.022 0 .018-.01.036-.024.055l.038-.033zm0 0c-.009.027-.031.077.044.153 0-.058.117-.117.117-.233 0 .058.058.058.174 0 .059.058-.116.058 0 .116.117-.058.408-.058.408-.233.291-.058.582-.465.815-.465-.116-.059.117-.059 0-.117.117-.058.524-.35.583-.524.116.058.233-.117.29-.058.117-.059.117-.117.06-.175-.06.116-.292 0-.234.175l-.058-.059c0-.116.116-.116.175-.233.058.059.116 0 .233.117-.059-.117.233-.175.349-.291l-.058-.117c.116.117.466 0 .407-.233.117-.058.117.059.175 0 0-.29.291-.349.524-.524-.058 0-.058.058-.116 0 .058-.174.233 0 .233-.174.058.058.116.058.116.116.058-.058 0-.175.117-.175-.117-.058-.175 0-.117-.174-.058.058-.116-.059-.175-.059-.29.175-.407.408-.64.466l.058.117-.058.058c-.117-.058.058-.058-.058-.117-.117.059-.117.175-.175.117v.116c-.117.059-.233.059-.35.175-.349.408-1.164.64-1.455 1.048.058.059 0 .059-.059.117-.116 0-.116-.058-.233.058l.059.058c-.059 0-.117.059-.175 0-.058.175-.291.292-.408.466-.174 0-.407.175-.699.35-.174.116-.29.233-.349.349-.35.117-.99.524-1.34.874 0-.059-.174.058-.29.116-.059-.058-.059-.116 0-.175-.059 0-.059-.058-.059-.058s.058 0 .058-.058c.059.058 0 .116 0 .116.466-.35 1.107-.524 1.456-.99.059 0 .175 0 .292-.116.757-.582 1.63-1.107 2.387-1.805 1.281-.99 2.679-1.806 3.786-2.854.058-.058.116 0 .174-.058.058-.058.175-.35.408-.291.408-.525 1.398-1.165 1.63-1.515.175 0 .525-.29.583-.465.175-.059.291-.233.35-.292.174 0 .232-.233.407-.349.408-.408 1.223-.99 1.63-1.456.233-.35.641-.466.758-.757.465-.233.931-1.048 1.455-1.34.7-.873 1.806-1.863 2.621-3.028-.757.7-1.456 1.631-2.213 2.388-.116-.058.058-.116-.058-.116 0 .174-.291.29-.408.407.233-.291.408-.524.64-.757.059.058-.057.175.059.117 0-.175.175-.233.233-.292.058-.058.058-.233.116-.29.117-.175.35-.408.466-.583.35-.35.64-.815 1.165-1.34.291-.29.524-.64.815-.931.059-.059.175-.117.233-.175.117-.116.175-.582.408-.582 0-.292.233-.408.466-.641.291-.35.466-.873.757-1.165.058-.116.116-.116.175-.174.349-.641.873-1.398 1.223-2.097.407-.64.757-1.398 1.048-2.038-2.62 4.31-5.94 8.328-9.61 11.938 8.037-8.153 13.803-20.673 11.765-27.138-2.155-4.891-4.95 1.398-6.756 6.348-.873-.233-4.076-2.038-3.61-3.436 1.106-3.552 7.22-7.745 11.938-6.522 2.853.699 5.3 4.717 4.31 10.832C29.466 21.822 16.713 33.41 9.491 37.313h-.058v.058c-.172.057-.343.17-.404.23.057-.055.115-.056.23-.113-.059.058-.117.116-.233.174.058.059-.059.059 0 .117.174-.175.349-.175.582-.35H9.55c3.377-.873 12.52-.35 14.093 1.864.582.815-3.029 3.552-3.844 5.707-2.912-2.854-7.978-5.358-12.695-3.844-1.514.408-5.707 5.183-6.814 2.039.117-.059.291-.175.35-.117.057-.058.058-.115.115-.173-.087-.001-.142-.035-.19-.026-.017.039.04-.01.075.025-.059.116-.233.116-.233 0 0-.117.116-.117.058-.233.116.058.175 0 .291 0l-.116-.175c.116 0 .174.058.29-.058.059.058.117.058.234.174-.175-.058-.175 0-.175.117-.116.058-.233 0-.291.116.116.117.466-.058.466-.233.233-.058.35-.233.64-.407-.068-.102-.155-.066-.24-.052a.512.512 0 0 1 .24-.065c-.058 0-.058-.116-.058-.233a.441.441 0 0 1 .117.233h-.059.059v.058c.174-.116.524-.174.698-.349-.116-.058-.407 0-.466.175l-.116-.058c-.058-.059.116-.059.058-.117.058 0 0 .058.117 0-.04-.08.003-.134.034-.178l.038-.033zm-.675.528a.317.317 0 0 1-.154-.026c.048.073.107.075.168.065l-.014-.04zm-.985.765a.082.082 0 0 0-.043.025c-.023.046-.019.046-.001.033l.044-.058zm.189.026l.001-.001-.001.001zm11.357-10.484C8.328 35.973 4.251 39.176.058 42.03l.058-.291c1.573-1.398 4.426-3.96 6.29-5.125 1.98-1.106 3.902-2.562 5.765-4.31 0 .059-.058.117-.058.117zm2.184-.524h-.03.03zm0 0h.087c.233-.116.233-.35.524-.466-.058-.116-.116 0-.174-.116 0-.117.174-.175.233-.292-.059 0-.059 0-.117-.058 0 .175-.408.35-.582.583.058.058.116 0 .116 0 .058.058 0 .058.058.116-.058 0-.116 0-.232.117l.058.058-.058.058c-.117-.058 0-.116 0-.233l-.292.291c.059.058.117-.116.175-.058-.116.116-.058.175 0 .291-.35.058-.64.466-.815.524 0 .175-.291.175-.408.408.291.058.408-.233.466-.291.116-.058.408-.117.408-.35.058.059.174-.174.349-.29 0-.06 0-.176.117-.176.058 0 0-.058.116-.116h-.03zm-5.678 5.125c0-.117.058-.117.175-.117-.059-.174-.175.058-.233-.116l-.059.058c0 .116.059 0 .059.058-.117.058-.408.058-.466.291-.117 0-.35.175-.35.292-.116 0-.174 0-.233.116-.116-.116.059-.116 0-.175-.058.117-.29.117-.233.233-.174 0-.174.175-.29.233l.116.175c.116 0 .174-.058.35-.117l-.117-.116c.116-.058.233-.058.29-.175.234.117.525-.407.816-.407l-.116-.175c.116 0 .174.058.116-.058.117.058.117-.117.175 0zm7.92-7.338l-.117-.058c-.29.291-.29.524-.582.582-.175.175-.524.64-.757.815.117.175.233-.174.35-.116.116-.291.757-.699.873-1.107.116-.058.116 0 .233-.116zm-3.849 3.897a.24.24 0 0 1 .005.005l-.005-.005zm-1.45.937c-.117 0 0 .058.058.116-.175 0-.175.233-.35.117.059.116-.116.174-.058.232-.116-.058-.291.175-.466.292.466.058.583-.466 1.048-.64l-.116-.06c.116 0 .291-.174.35-.232l-.059-.117c-.116.059-.291.35-.408.292zM29.466 15.3c.291-.466.35-.99.466-1.281h-.116v.174c-.117.117-.175.35-.233.583 0 .174-.175.466-.117.524zm.583-7.746c-.059-.232-.233-.757-.35-.931.117.466.233.99.35 1.514.116-.175.116-.466 0-.583zM6.814 38.244c.058 0 .058.175.174 0-.058-.058-.174.059-.174-.116l-.117.117c-.116-.117.117-.117.175-.233-.175 0-.35.233-.524.35.058 0 .174.116.29.174.117-.058.117-.175.176-.291zM28.71 4.353c.117.232.175.349.35.582 0-.175-.175-.582-.35-.582.175-.233-.233-.175-.058-.35-.175.058-.058-.116-.175 0l.117.175-.117.116c.058-.058.058.059.175 0-.058.059 0 .059.058.059zM9.667 35.973c-.233.059-.466.35-.699.525.175.116.64-.35.7-.525zM29.642 6.04c-.291-.35-.233-.64-.524-1.048.058.408.407.874.466 1.34.116-.117 0-.175.058-.292zM18.985 26.772c-.058-.058-.291.233-.291.291-.117.059-.292.292-.292.408.233 0 .35-.466.525-.466 0-.058 0-.116.058-.233zm11.24-15.258c.058 0 0 .117.116.117-.058-.35.174-.874-.117-.99 0 .35.117.699 0 .873zM23.76.857c.117 0 .233.117.291-.058-.233-.116-.582.058-.757 0l.058.117s.059 0 .059-.059c.116.117.233 0 .35 0zm5.3 15.666c.116 0 .058-.175.116-.233-.058-.058 0-.117-.058-.117-.117.292-.175.408-.291.7.116-.06.233-.234.233-.35zM21.955 1.44c0-.117.058-.059.058-.175-.175.116-.524.058-.524.408.175-.059.35-.292.466-.233zm8.313 8.153c-.015.043-.015.087.073.116-.117.117-.117.466 0 .583-.058 0-.058 0-.117.058h.117l.058-.058h-.058c.116-.059-.058-.175-.058-.233.116-.059.116-.35.058-.35a.21.21 0 0 0 .014-.16l-.087.044zM19.101 3.245c-.116.291-.35.291-.524.64.291-.116.466-.465.699-.64-.058-.058-.116.058-.175 0zm5.94-2.562l-.058.116c.175.058.408.058.582.117 0-.175-.116-.233-.232-.117-.059-.175-.233 0-.292-.116zM10.133 35.449c-.058.117-.058.175-.175.233.117.117.175.117.233 0h-.058c.058 0 .116-.116.291-.233-.116-.058.117-.058-.058-.174 0 .174-.058.233-.233.174zM22.421 1.032c.058.175.058-.058-.059.058v.059c-.058-.117-.174 0-.116.116l.175-.058c.116-.058.233-.058.35-.117-.117-.29-.234.117-.35-.058zM19.45 3.13c.233-.233.407-.466.699-.641-.117-.058-.292 0-.35.175-.116.058-.35.29-.35.466zm10.832 9.376c-.175 0 .058-.059 0-.117h-.117l-.116.64c.233-.116.058-.407.233-.523zm-1.806 5.066c.233-.116.233-.408.408-.582l-.117-.059a2.153 2.153 0 0 1-.29.641zM17.645 28.286c-.116.233-.29.292-.349.466.116-.058.524-.29.35-.466zm12.23-14.326c.116-.116.291-.407.116-.524 0 .175-.174.408-.116.524zm-.699-.757c.117.059.058 0 .175 0 .058-.174-.058-.233 0-.407h-.117c0 .174 0 .29-.058.407zM20.616 2.14c-.117-.117-.234.058-.175.174l.174-.174.233-.117c-.058-.058-.058-.116-.116-.116.058.174-.233 0-.117.233zm8.618 13.801c.117-.233.35-.407.175-.582-.058.117-.175.466-.175.582zM13.685 33.76c.059-.058.175.059.233-.058-.174-.058-.29 0-.407.117.116.058.116.116.233.058.058-.058 0-.058-.059-.116zM24.517.8c.175-.06.233 0 .408 0 0-.117-.117-.234-.175-.117 0-.117-.116 0-.116 0-.059.058-.059 0-.117.116zm5.137 6.416c.011.078.025.158.046.222.059-.078.065-.137.052-.191l-.098-.031zm-.827-3.156c0 .175.174.35.233.524l.116-.058c-.175-.174-.233-.35-.35-.466zm1.34 8.328c.174-.058.174-.35 0-.408 0 .117.057.233 0 .408zm.17-3.087c-.168-.06.06-.29-.17-.29l.057.407c.059 0 .117 0 .117-.058h-.058c0-.054.048-.058.057-.058l-.002-.001zm-2.267 9.085l.174-.29-.116-.06c-.058.117-.058.234-.058.35h-.117c0 .059-.116.117-.058.175.058-.116.116-.116.175-.175zm-8.448 7.686c-.116-.051-.288.234-.288.234.175.059.175-.174.291-.233 0-.029.03-.058.051-.087-.109 0-.109.058-.052.087l-.002-.001zm.002 0a.133.133 0 0 0-.002 0h.002zm1.34-24.225c.117.059.292-.058.292-.174-.058-.117-.058.058-.116.058-.059-.058-.175 0-.175.116zm-7.337 30.4v-.059l-.291.291c.116.117.233-.174.291-.233zM25.74.915v.058c.058 0 .058.116.117 0-.059 0-.059-.058-.059-.117l-.058.059s.058 0 .058-.059L25.624.8l-.059.175c.059 0 .117 0 .175-.058zm-1.536-.08c.066-.022.139-.066.197-.095-.088.029-.131-.015-.175-.036l-.022.13zm5.205 8l-.116.058c0 .116.058.233.174.233l-.058-.291zM18.344 3.944h-.058c-.058.058-.175.175-.233.291.175 0 .175-.175.291-.291zm11.83 4.833a.53.53 0 0 0 .05.175c.088-.058.102-.13.08-.196l-.13.021zm-2.396 8.62c.059-.175.175-.35.233-.467-.233.059-.174.292-.29.35.116 0-.06.058.057.116zM.35 42.146c-.116.058-.174.174-.29.232 0 0 0-.058-.059-.116.116-.058.233-.117.35-.117zm18.345-15.608c-.117-.058-.233.233-.35.291.175.059.233-.232.35-.29zm-.7 1.514c-.116-.058-.232.175-.349.175.233.175.292-.175.35-.175zM23.172.96c.05 0 .094-.014.123-.102-.029 0-.087-.029-.145-.029l.022.131zm5.306 16.612c-.116.175-.174.291-.233.408.117 0 .291-.292.233-.408zm-8.91-14.5l.117.116c0-.117.174-.175.233-.233-.175-.117-.117.116-.35.116zm10.614 8.909c.102-.01.104-.113.16-.058 0-.116.058-.233-.058-.233-.109.163.035.174-.085.269l-.017.022zM10.586 36.467a.621.621 0 0 1 .071-.028c-.019-.038-.038-.038-.057-.026l-.014.054zm5.836-5.269l.117-.116c-.058-.059-.117.058-.233 0 0 .058-.175.116-.058.174.058-.058.116-.174.174-.058zm1.98-26.905c.059-.174.117-.233.233-.35-.116 0-.349.176-.233.35zm4.31-2.33l.058.117s.058-.116.175-.058c-.058-.116-.058-.058-.058-.175-.117 0-.117.175-.175.117zm2.155-.116l.001-.003-.001.003zM.407 42.904c0-.059-.058-.117-.058-.117 0 .117-.116.117-.174.117-.059.058-.059.058 0 .116l.233-.116zM29.934 8.777l.058.233c.233-.116.059-.233-.058-.233zm.117.7v.232c.058-.058.174-.058.116-.116-.116.058.058-.175-.116-.117zm-1.223 5.008c.058.058.058.058 0 .116.058 0 .058.058.174.058 0-.116 0-.174-.058-.174 0-.059 0 .058-.116 0zm-9.551 11.938l-.291.233.116.058c-.058-.116.059-.175.175-.291zm-4.251 4.6l-.117.175c.059.058.175-.058.175 0 .058-.058.058-.116-.058-.175zM18.112 4.41a.384.384 0 0 1 .014.005l-.014-.005zm9.958 12.462c.058-.058 0-.175.058-.233v-.058c-.117.116-.117.175-.058.291zM21.35 2.626c-.036.037-.065.095-.094.095.087.058.131.029.16-.007l-.065-.088zm8.037 7.403c.022.044.051.088.022.146.087-.029.073-.073.044-.124l-.066-.022zm.022-.393v.015c.03-.03.015-.03 0-.015zm0 0c-.015.015-.03.044 0 .073h.116v-.233l-.174.058c.053 0 .058.05.058.102zm.016 2.372c-.045.093-.016.222-.016.264.058 0 .058 0 .116-.059-.083 0-.077-.09-.045-.184l-.055-.02zm-.773 3.408h-.058c-.059.117 0 .059-.117.175.058 0 0 .058.117.058l.058-.233zm-8.095-12.99v.002-.001zm0 .002c-.001-.055-.058.001-.058-.057 0 0-.058.059 0 .117l.058-.058.175-.059c-.172-.172-.175-.005-.175.056zm-3.436 26.44v-.058c-.116.175 0 .117-.174.233l.174.059c-.058-.059 0-.117 0-.233zM21.198 2.08l.116-.116c-.116-.058-.233-.117-.116.116zm8.852 7.862v.233c.058-.058.174-.291 0-.233zm-8.037-8.619c.117 0 .117-.174.175-.058 0-.116 0 0-.058-.116-.059 0-.117.058-.117.174zm8.153 7.221c.058-.058 0-.232 0-.29-.058 0-.116 0-.116.058.116-.059.058.174.116.232zM12.26 34.008a.504.504 0 0 0-.146.16c.058-.058.131-.087.19-.116l-.044-.044zm7.697-8.554c-.043.03-.062.073.019.154 0-.045.007-.075.02-.096l-.039-.058zm-3.467 4.114c.05.005.053.058.108.058 0-.058.233-.175.117-.233-.054.054-.108.158-.21.173l-.015.002zm-1.29 1.222l-.058-.058c0 .058-.233.175-.174.291l.233-.233zm13.273-13.513c-.1-.057.235-.115.005-.172 0 .045-.07.126-.101.186.024.011.026-.048.1-.012l-.004-.002zM8.463 38.21a.4.4 0 0 1 .04-.023.124.124 0 0 0-.016-.023l-.024.046zm4.938-5.14a.31.31 0 0 0 .11-.124c-.03 0-.073 0-.11.015v.109zM30.53 8.836c.015.043.044.087.044.116.058-.029.058-.073.043-.116h-.087zM6.814 39.35v.117l.116-.059c0-.116-.058-.116-.116-.058zM28.594 3.77h-.059c.117.058.175.175.292.175-.117-.058-.059-.233-.233-.175zm-17.82 31.098c-.117 0-.175.116-.35.233.117 0 .233-.175.35-.233zM23.585 1.673s-.058 0-.058.058l-.058.175h.058c.058-.117.058-.059.058-.233zm1.398-.583l.117.059c.058-.117-.059-.059-.059-.117 0 0 .059-.116-.058.058zM20.63 24.625c-.044.05-.073.109-.015.167 0-.058.059-.116.102-.167h-.087zm.385-21.77a.965.965 0 0 1 .008-.017l-.008.017zm5.133 15.124l.116-.175c-.116 0-.233.175-.116.175zm-7.898 9.645c-.037.036-.051.08-.022.08.029.058.073.03.109-.015l-.087-.065zM29.525 10.64c-.058 0 .059-.117 0-.117h-.116c.058.059.058.117.058.175.058 0 .058-.058.058-.058zm-9.783 15.083l-.058.116.116.059c.058-.059 0-.117-.058-.175zM30.34 8.486v-.233h-.058v.233h.058zm-.99 0v-.174l-.117.058c0 .058.059.116.117.116zm-1.158-4.935c.022.043.051.073.11.043-.059-.029-.073-.087-.088-.13l-.022.087zM12.928 33.003l-.058-.058-.116.117v.058l.174-.117zm-5.58 5.104a.13.13 0 0 1-.069.021c.074.05.096.036.11.01l-.041-.03zM18.053 4.293c-.058.059-.233.059-.058.175h.058c-.058-.058 0-.116 0-.175zm-3.741 28.938a.23.23 0 0 0 .072-.053c-.017-.034-.034-.038-.052-.03l-.02.083zm-.16.119v.003a.82.82 0 0 1 .02-.029l-.02.026zm6.653-9.024c-.044.044-.073.088-.015.117 0-.03.058-.073.102-.117h-.087zm-3.647 4.252c-.037.043-.066.087-.037.116.03-.03.088-.073.124-.116h-.087zm-3.473 4.076l-.058.117c0 .058.233-.059.058-.117zm8.659-30.51c.04.001.098-.049.135-.122h-.058c-.037.074-.05.054-.07.045l-.007.077zM.29 43.253l.233-.117v.059l-.175.116-.058-.058zm12.987-10.191l-.117.116c.058.117.175 0 .117-.116zm1.805-.7l.117.117.058-.116c-.058 0-.117-.058-.175 0zm2.038-3.144v.058l.175-.174h-.058l-.117.116zm1.049-1.63l-.059-.059-.174.175h.058l.175-.116zm2.242-25.755c.029-.015.058-.044.087-.044-.058-.058-.087-.058-.11-.044l.023.088zm8.298 13.234h.117c0-.058 0-.117-.117-.117-.058.059.058.059 0 .117zm-7.454-12.23c-.116-.174.058 0 .058-.058l-.116-.116-.058.058.058.116s0-.116.058 0zm8.837 6.308a.11.11 0 0 1 .015-.018.092.092 0 0 1-.006.005l-.01.013zm-21.3 27.586l.175-.117c-.058-.058-.116.058-.116-.058-.058.058-.058.116-.058.175zm18.51-18.578h.01a.243.243 0 0 1-.009-.018v.018zM15.607 30.266l-.116.117c.058.116.233-.058.116-.117zm3.028-26.031c0-.058.059-.058.059-.058.058 0 0-.058 0-.117l-.059.059c0 .058-.116.058 0 .116zM8.037 37.022l-.117.116c0 .058.233-.058.117-.116zM24.05 1.789c0-.058.059 0 .059-.116h-.117v.116c.058 0 0-.058.058 0zm-9.55 31.214l-.175.117h.175c-.059-.058.116-.117 0-.117zM29.336 6.128c-.014.029-.014.058.015.087.058-.03.087-.058.094-.087h-.109zm-.233-.575c.03.007.073-.008.131-.037a.183.183 0 0 0-.087-.05l-.044.087zm.655 2.118l.059.116.116-.058c-.058-.058-.116-.058-.175-.058zm-8.822-5.744c.029.008.058.008.029-.08-.03-.058-.058-.043-.073-.007l.044.087zm-7.178 30.174c-.014.029-.014.058.044.087 0-.029.029-.058.044-.087h-.088zM24.575 1.73v.058c.059 0 .117 0 .117-.116-.058-.059-.117.058-.117.058zm-6.638 3.145c.058-.059.174-.117.058-.175 0 .058-.117.116-.058.175zm12.17 6.114v-.174h-.057v.174h.058zm-.174-2.387v.116c.117 0 .058-.058.175-.058-.058-.058-.117-.058-.175-.058zm-.116-2.228c.014.03.029.044.058.015 0-.03.014-.073.007-.102l-.065.087zM20.266 2.43c0-.117.116-.059.116-.117-.058-.116-.058.058-.174.058 0 .059.058.117.058.059zm8.852 11.647v-.117c-.117 0-.058.059-.117.059 0 .058.059.058.117.058zM23.702 1.906c.058 0 .058-.117.116-.117v-.116c-.058 0-.058.058-.116.233zm6.231 10.948s.117-.175 0-.117c-.058 0-.116.117 0 .117zm-.677 2.25c-.007.036.007.08.037.08 0-.03.029-.044.05-.059l-.087-.022zM23.993 1.09h.117c.058-.116-.059-.116-.117 0zm4.353 2.708c.03.03.073.059.073.088.058-.03.044-.059.015-.088h-.088zm1.056 2.534c.022.043.065.087.065.116.03-.03.015-.073 0-.116h-.065zM10.97 34.634c-.022.015-.05.03-.08.058a.753.753 0 0 0 .255-.189l-.175.131zm-2.053 3.24c-.022.021-.036.05-.007.08.03-.03.073-.044.095-.059l-.088-.022zM19.261 3.521c.03 0 .073-.015.131-.044a.335.335 0 0 0-.13-.044v.088zm9.274 14.69l.059-.117c-.117-.058-.175.117-.059.117zm-3.26-16.423l-.059.175c0 .058.058-.117.058 0v-.058s.059-.117 0-.117zm3.96 13.51l-.059.176c.058.058.117-.175.058-.175zM7.686 37.314l-.116.058c0 .117.174 0 .116-.058zM20.98 2.06c.012.049-.065-.013-.015.136l.058-.058c0-.05-.042-.141-.055-.132l.012.054zm-.365 1.068l.059.116c.058-.058.058-.116 0-.175l-.059.059zm-.349-.99V2.08l-.116.117v.058l.116-.116zm9.143 8.094v.059c.058 0 .175 0 .116-.059-.058.059 0-.058-.116 0zm-10.7 16.19c-.015.029-.015.058.043.058 0-.03.029-.058.044-.08l-.088.022zM8.713 37.96c-.037.022-.066.05-.037.109 0-.03.058-.058.102-.087l-.065-.022zm1.011-1.988h.059c0-.058.174-.058.058-.116-.058 0-.058.116-.117.116zm19.16-31.04v-.116c-.175.059-.058.175 0 .117zm1.383 5.54c0 .037.015.08.015.11.058 0 .058-.03.05-.066l-.065-.043zm-8.604-8.037V2.43v.006zm.051.052a.08.08 0 0 1 .007 0h-.007zm8.116 7.316c-.029.022-.043.05-.014.08.029-.03.058-.044.08-.058l-.066-.022zm-11.793-5.19c0 .014.015.029.015.029.03.029.044.029.051.014l-.066-.043zM15.432 30.44c0 .058-.116.117 0 .117 0 0 .117-.059 0-.117zm1.864-1.514v-.058l-.058-.059c-.058 0-.058.059-.058.059 0 .058.058.058.116.058zm12.674-16.67c-.022.03-.037.044.021.015 0 0 .03-.044.044-.08l-.065.065zm.138-1.965c-.058.058 0 .116.058.116l.058-.116c-.116.058-.058 0-.116 0zM7.628 38.769l-.116.058c.059.058.117.058.175 0 0-.058-.058.058-.058-.058zM27.859 3.12c.022.022.066.037.095.008 0-.03 0-.044-.007-.051l-.088.043zM22.654 1.36c.029-.008.058-.037.058-.095 0 0-.03 0-.058.007v.088zm7.512 9.922l-.058-.117h-.058l.058.117h.058zm-18.78 22.995c.028-.036.057-.08.086-.109-.029 0-.058.03-.087.066v.043zm11.966-15.483c0-.117.059-.175.117-.291-.117.116-.175.233-.233.35 0 0 .058 0 .116-.059zM8.212 36.905s-.175.058-.059.117c0-.059.175-.059.058-.117zm21.605-26.672l.058.059c.058 0 .116 0 .058-.059-.058.059 0-.058-.116 0zM29.11 7.65c.007.022.036.051.065.08.03 0 .03-.014.022-.036l-.087-.044zm-7.913-5.321c.014.014.029.014.058-.015a.658.658 0 0 0-.08-.073l.022.088zm7.954 3.367c0 .018.006.036.024.054.052-.026.046-.04.034-.053l-.058-.001zm-8.85-2.319c-.007.015-.007.044-.036.044.058.029.073.029.08.022l-.044-.066zm3.05-1.47h.059c0-.059.058-.175 0-.117 0 .058 0 0-.059.117zm-2.562.407l.058-.058h-.116s-.058 0 .058.058zm.582-.116h.059c-.059-.058-.059-.175-.059-.117 0 .117-.058.059 0 .117zm7.571 11.996v.117s.117 0 .058-.058c-.058 0 0-.059-.058-.059zM19.385 3.434c.007-.014.007-.043.007-.072-.029 0-.029.014-.029.029l.022.043zm-1.04.918v.058l.057.058s0-.058-.058-.116zm5.532-2.68v.117h.058c0-.058 0-.116-.058-.116zm-1.573-.232c.058 0 .117.058.058-.059 0 0-.116-.058-.058.059zM28.71 4.7c.058.06 0 .176.117.117 0 0-.059-.174-.117-.116zM24.46 1.79c0-.117-.058-.06-.058-.06-.117.117 0 0 .058.06zm-2.737-.06h-.117l.059.06h.058v-.06zm6.93 13.512l-.058.058c.058 0 .116 0 .174-.058h-.116zm-.408 1.048c.117.058.059-.058.059-.058-.059-.059-.059.058-.059.058zm-6.872-14.5l-.058.057c0 .059 0 .059.058.117v-.175zM25.857.45h-.059c-.116.116-.058.116.059 0zm-5.824 2.387l.058-.058-.116-.058s.058.058.058.116zm-.175 22.829l-.058.058c.058 0 .175-.058.175-.058-.058-.058-.117.058-.117 0zm4.048-24.54c.014.008.029-.007.029-.036-.03 0-.015-.029-.007-.05l-.022.087zm-1.305.872a.11.11 0 0 1-.006-.034c.018.017.025.03.026.04l-.02-.006zm6.8 10.622c-.044-.005.002-.057-.108-.057l.058.058s.104.052.066.008l-.017-.009zm.016.01a.17.17 0 0 0-.008-.009H29.4l.017.008zm-10.36-8.94c-.014.006-.014.02-.014.02.03 0 .044.015.058.023l-.043-.044zm-1.295 1.36c.116.059.175 0 .058 0-.058-.058-.058 0-.058 0zm10.191 13.045v.058c.058.059.058-.058.058-.058h-.058zm1.572-6.813v-.059h-.116c.058 0 .058.059.116.059zm-6.23-9.435l.057-.058h-.058c-.058.117-.058.058 0 .058zm-4.332 1.9c-.007.022-.007.051.022.08.029 0 .029-.014.022-.036l-.044-.044zm2.934-2.19l-.117.057v.059l.117-.117zM19.16 3.018c-.015.008-.03.022 0 .051 0 0 .029 0 .043-.007l-.043-.044zm2.212-1.288l-.116-.117c.058.117.058.117.116.117zm.059-.058l-.059-.059c0 .117.059.059.059.059zm4.076-.524h.058c.059-.059 0-.059 0-.059l-.058.059zm-3.552 1.106l.058.116c0-.058 0-.058-.058-.116zM10.082 35.653c.007.015.022.03.051.03-.03 0-.044 0-.051-.008v-.022zm0 0c-.007-.014-.007-.029-.007-.029 0 .03 0 .044.007.051v-.022zm8.961-32h-.058c0 .058.058.058.058.058v-.058zM9.674 35.966c.008.007.022.007.051.007-.029 0-.043-.014-.05-.029v.022zm18.22-17.93l.06.06c-.06 0 0-.06-.06-.06z" fill="#4B8A98" fill-rule="evenodd"/></svg>