<svg width="26" height="45" xmlns="http://www.w3.org/2000/svg"><path d="M.578 39.065c-.224-.561-.337-1.18-.449-1.741.112-.955.337-1.966.562-3.033.674 20.558 27.017-10.729 13.93-12.245-3.146-.112-3.595 3.202-4.1-2.19 13.2-7.19 14.323-28.366 4.942-10.785-.561-.394-2.808-2.977-2.696-4.157C17.15-1.714 28.495-2.613 25.293 8.34c-1.404 4.663-5.954 9.999-10.335 12.582 4.662-.786 7.077.675 7.864 3.146v.168h.056l.056.057-.112.056h.056s.056.056.056.112l.112.337c-.056.113-.056.225-.112.281-.056.056 0 .056.112.056v.056c-.168.169-.168.45.057.45-.169.28-.057.393-.169.786.112 0 .112 0 .225-.056l-.056.225h-.113c0 .112-.224.505-.168.73.112-.056.393-.393.168-.506l.113-.056c0 .225-.057.506-.057.73-.112 0 .057-.112-.112-.056-.056.169-.393.393-.225.562-.337.28-.112.786-.393.899.169 0-.112.168.112.168-.112.112-.28.618-.224.786-.169 0-.169.281-.281.281 0 .113 0 .169.112.169-.056-.169.281-.169.113-.281l.168-.056c.112.112-.112.224-.112.337-.056.056-.169.112-.281.056.056.112-.112.337-.169.506l.113.056c-.281.056-.562.28-.337.505-.056.113-.169 0-.225.056.225.281-.112.506-.28.787.055 0 .112-.056.112 0 .112.168-.225.112-.113.224-.112 0-.168.057-.28 0 0 .113.112.169 0 .225.168 0 .224-.056.28.112.056-.112.169 0 .281 0 .169-.337.225-.617.393-.842l-.056-.056.056-.169c.113 0 0 .113.113.113l-.113.112c-.224.562-.45 1.067-.73 1.573-.393.618-.842 1.18-1.18 1.74-.056.057-.168.057-.224.113-.112.169-.112.506-.393.506-.394.786-1.63 1.685-1.854 2.134-.225.056-.618.45-.674.674-.28.056-.393.281-.506.393-.28 0-.337.281-.449.394-.618.561-1.741 1.18-2.247 1.629-.449.393-.842.449-1.123.786-.674.112-1.517.955-2.135 1.011-1.18.618-2.808.899-4.212.955.955.225 2.247-.112 3.426-.45.056.113-.168.057-.112.169.168-.168.505-.225.73-.168-.337.112-.73.28-1.067.393-.056-.056.112-.113-.056-.169-.113.225-.281.113-.394.113-.112.056-.224.224-.337.28-.28.113-.561.169-.842.169-.506.056-1.236.168-1.91-.056-.393-.113-.842-.225-1.123-.45-.113-.056-.113-.224-.169-.28-.168-.057-.73-.057-.674-.337-.337.056-.45-.225-.618-.45-.28-.393-.786-.618-.955-1.067-.112-.056 0-.169-.112-.225-.505-.561-.899-1.46-1.18-2.303zm4.157 5.842c.786.112 1.629.112 2.415.056h-.449a5.082 5.082 0 0 1-2.584-.505c-1.516-.674-2.64-2.023-3.314-3.54a12.572 12.572 0 0 1-.786-2.583c-.169 3.426.898 5.954 4.718 6.572zm15.425-10.64a3.093 3.093 0 0 0 .024-.032l-.024.031zm-8.123 7.438l-.168-.224c-.281.056-.394.337-.73.337.112.168.168.056.168.224 0 .113-.225.169-.337.225.056.056.056.056.112.168.113-.224.562-.224.843-.505-.056-.056-.113 0-.113-.056-.056 0-.056-.056-.056-.113.056.057.169 0 .281-.056zM15.8 38.56l.113.112c-.169 0-.337.169-.45.28l.113.113c.168-.056.337-.393.505-.337.113-.056-.056-.112-.056-.168.225 0 .169-.281.393-.169-.112-.056.169-.168.113-.28.168.056.337-.225.449-.338-.505-.056-.674.562-1.18.787zM9.004 42.94c-.056 0-.112-.112-.169-.056l.057.168c.337-.112.505-.393.786-.224.28-.169.899-.45 1.123-.562 0-.337-.28.112-.337-.056-.28.28-1.067.337-1.46.73zm5.28-3.09c.056.17-.45.282-.281.506.393-.28.562-.618 1.011-.73.056-.169.393-.506.45-.506-.113-.224-.225.113-.394.169-.28 0-.45.393-.561.562-.113.056-.169.056-.225 0zm-1.46 1.124c-.057-.112-.281.112-.394.225.281.056.73-.393 1.011-.45 0-.168.337-.168.506-.393-.281-.112-.506.225-.562.281-.225.056-.505.056-.562.337zm7.92-7.751c-.113.056-.225-.057-.281.056.112.056.168-.056.28.056l.113-.169c.168.057-.113.225-.113.337.225 0 .281-.449.506-.617-.112.056-.337-.057-.45-.057-.112.169-.112.281-.056.394zM15.575 18.9c-.169.113-.393.169-.337.394.45-.225.786-.674 1.123-.843l-.112-.056c-.056 0-.056.056-.113.168-.168-.056-.337.169-.561.337zm5.167-5.055c.225 0 .45-.225.506-.45.168-.168.45-.673.505-.954-.28.505-.617.955-1.01 1.404zM17.88 36.762c.337-.056.505-.505.786-.73-.225-.112-.73.506-.786.73zm4.381-24.77c.112-.506.45-.618.618-1.236-.393.393-.562.955-.899 1.404.112 0 .169-.169.281-.169zm-8.987 8.762c.28.056.337-.28.618-.337l-.056-.112c-.394.224-.675.505-.955.617.112.169.337 0 .393-.168zm4.823 13.677c-.02.028-.02.056.064.085-.169.28-.394.337-.562.505l.168.169c.113-.225.225-.337.45-.506-.169-.056.056-.112-.056-.168 0-.029.042-.057.063-.085h-.127zm.12-17.665c.168-.337.73-.506.674-.899-.337.281-.45.618-.674.73 0 .057-.113.057 0 .169zm-.872 20.504c-.102.017-.2.12-.252.223.07.069-.01.116-.043.156a.47.47 0 0 1 .38-.213c0-.056 0-.168.169-.224-.169-.169-.225-.169-.337 0 .038.077.077.022.097.016l-.014.042zm-.295.38c-.02.024-.022.046.043.067 0-.018.002-.035.006-.052l-.049-.016zm.31-.422c.009-.003.014.004.014.04-.01 0-.02 0-.03.002l.015-.042zm-5.367 4.282c.052.125.105.023.157-.03.113.17-.112.225-.056.338l.337-.225c0-.169-.112.056-.168-.056.112-.056.112-.169.112-.337-.112.112-.112.224-.225.112-.052.053-.006.154-.138.167l-.02.03zm-6.583 1.543c-.112.169.169.281.28.113 0 .168.282.168.45.112 0-.225-.561 0-.505-.28-.113.055-.225.112-.225.055zm14.38-28.012v-.016a.06.06 0 0 1-.002.013l.001.003zm-8.356 28.51c-.632.317-1.278.598-1.924.85a15.454 15.454 0 0 0 1.903-.807l.021-.042zm0 0c.632-.315 1.25-.666 1.84-1.06-.618.422-1.236.787-1.86 1.103l.02-.042zm3.075-23.528zM7.656 43.222c-.169-.056-.45-.225-.618.168.28-.112.393 0 .618-.168zm5.448-3.876c-.112.056-.168-.112-.337.056.225.113.337.056.562-.112-.112-.056-.169-.112-.28-.112-.057.056.055.112.055.168zm4.438-21.962c-.113-.113.056.056.112-.056l-.112-.113c-.169.169-.337.337-.506.45.281.168.337-.281.506-.281zm-.843-.562l-.112-.112c-.112.112-.169.28-.337.28.056.17.112.057.168.17.113-.113.113-.282.281-.338zm6.123-6.122c.168-.169.393-.562.224-.73-.056.28-.112.393-.224.73zm-10.055 9.1h.001zm1.91-.113c.225-.169.45-.113.45-.393-.17 0-.394.28-.45.393zm6.909-7.078l-.169-.056c.057.113-.224.281-.337.506.337-.056.169-.337.506-.45zM7.829 43.27a.231.231 0 0 0-.005.009v-.005l.005-.004zm-.005.004c0-.022-.007-.114-.056-.163h-.112l.056.168c.056 0 .112-.056.056.112.225-.112.113-.112.225-.056l.056-.28c-.055.109-.162.112-.22.215l-.005.004zM23.16 9.52c.056.112-.169.337-.056.45.28-.057 0-.338.224-.394-.168 0 .056-.112-.168-.056zm-6.46 8.482c-.056.168-.393.224-.337.393.113-.056.393-.113.337-.393zm-4.1 3.314l.224-.169-.056-.168c-.112.112-.224.168-.168.337zm5.224-4.382l-.281.281c.224.113.393-.112.28-.28zm2.64-2.696l-.337.337c.224.113.337-.168.337-.337zm-1.517.337c-.225-.168-.169.113-.337.169.28.168.168-.225.337-.169zM5.072 43.56c-.056.225.225.112.393.225 0-.225-.337-.113-.393-.225zm7.751-2.303l.057.056c.112-.056.28-.168.393-.28-.056-.113-.281.168-.45.224zm7.19-26.288c-.112-.168.281-.112.113-.337l-.281.337.112.057-.056-.057c0-.056.112.057.112 0zm3.146-4.55h.056c.112-.168.168-.392.225-.561-.169.056-.113.393-.281.562zm-3.483 3.315l-.056-.056c-.168.112-.168.224-.168.337l.224-.281zm-2.92 22.3c0 .168 0 .224-.17.336.057.112.057-.168.17 0 .112-.112.224-.225 0-.337zm-1.517-18.144c-.056.113-.056.113-.169.113.056.056 0 .056.113.168.112-.056.112-.112.112-.168 0-.113-.056 0-.056-.113zm-.337 21.232c-.056.113-.281.113-.337.281.112 0 .337-.112.337-.28zm3.762-5.13c.06.012.069-.105.113-.15l.057.057c.112-.113 0-.169-.113-.169 0 .05 0 .141-.075.201l.018.06zm.282-19.64l.168.112.113-.169-.113-.112c.057.056 0 .169-.056.169.056.056-.112-.057-.112 0zM6.982 43.39c.168-.338-.225-.057-.225-.113 0 .112.169.056.225.112zm3.927-1.4c-.054.054-.105.11.005.22l.168-.056c0-.16-.15-.068-.167-.152l-.006-.012zm-.276.5l-.056.057c.168-.056.393-.056.337-.225-.113.056-.225.112-.281.169zM9.678 41.2l-.169.056c.113.112.169 0 .225.168.056-.056.225-.056.112-.168-.056.056-.168.112-.168-.056zm4.606-22.524c.112.056-.056.056 0 .168l.225-.168-.113-.113c-.056.113 0 .113-.112.113zm-.899 1.792a.356.356 0 0 1 0-.01v.01zm7.246-6.51c.056.112-.168.168-.168.28.112.056.168-.168.224-.224 0-.057-.056-.057-.056-.057zM20.07 32.1l-.168-.056-.056.169c.112 0 .224 0 .224-.113zm-6.571-12.638l-.113-.112c-.056.056-.112.112-.112.28.112-.056.112-.224.225-.168zm5.785-4.325l-.225.225c.113 0 .394-.057.225-.225zm-1.91 1.067c-.112-.056-.28.113-.28.225.056.056.056.056.112.056-.056-.168.112-.168.168-.28zM3.275 41.65c-.113-.056-.113-.28-.337-.112.112 0 .168.224.337.112zm.063.21c.049.043.105.07.161.015-.056-.028-.084-.099-.12-.14l-.041.126zM23.493 9.652c.012.015.03.028.059.038a.032.032 0 0 1-.01-.024l-.05-.014zM7.375 43.615c.112-.056.28.056.337-.168-.112.112-.337 0-.337.168zm-2.134-.45l.056-.112c-.169.057-.169-.112-.337-.112 0 0 .112.169.28.225zm-.52-.322a.587.587 0 0 0 .126.042c.057-.084.028-.113-.02-.127l-.106.085zm7.372-2.767l.169-.112c-.113-.056-.113-.112-.225-.056.112.056-.056.056.056.168zm-5.82 3.258c.049 0 .119-.028.147-.056.028-.056-.014-.084-.063-.091l-.084.147zm13.235-7.976c0-.056.168-.168 0-.225 0 .057-.169.169 0 .225zm.674-21.176l-.169.225c.113.112.169-.113.169-.225zm-7.874 25.726c.04-.007.081-.123.122 0 .056-.056.113-.113.056-.225-.048.146-.055.124-.164.151l-.014.074zM23.355 8.93c-.014.056 0 .113.085.14 0-.056.028-.126.042-.182l-.127.042zM4.475 42.794c.05.007.12-.022.148-.078-.028 0-.056-.028-.085-.049l-.063.127zm-.47-.527c-.113.056-.056.056-.056.112.112-.056 0 .281.224.056-.168 0-.056-.168-.168-.168zm12.301-3.595l.225-.168c-.225.056-.618.505-.225.168zm2.134-23.591l-.056-.056c-.056.056-.056.112-.112.168.056.056.112.056.168.056-.112-.112 0-.112 0-.168zm1.124-.281l-.112.168c.056.057.112.113.168.057-.168-.113.112-.113-.056-.225zm3.11-4.466c-.02.029-.02.057.035.085-.112-.056-.112.112 0 .112v-.112c0-.028.042-.07.07-.106l-.105.021zm-4.753 6.64c.04.004.07-.067.07.017.056-.057.225-.113.112-.225-.101.05-.065.194-.182.179v.03zm-4.423 23.327l.168-.112c-.056-.113-.28 0-.168.112zm-7.303 3.314h.169l.056-.112h-.168l-.057.112zm14.436-29.264l.056.056.169-.225-.056-.056-.169.225zM13.33 40.427c.028 0 .056-.014.112-.07-.028-.056-.07-.07-.112-.056v.126zm-.45.323l.17-.112c-.057-.112-.282-.056-.17.112zm7.19-27.41l-.168-.113c0 .056 0 .113.056.225l.112-.112zm-1.235 22.524c.056-.057 0-.113-.057-.169l-.112.112c.112.113.056-.056.169.057zm3.538-24.827c-.112.112-.112.168.056.224 0-.056-.056-.168-.056-.224zm-8.481 29.489l.056.056.112-.112v-.113l-.168.169zM8.105 42.94l-.056-.112c-.056 0-.112.056-.168.056v.056h.224zm.618 0c-.056.056-.225 0-.225.169.057 0 .225-.169.225 0 .056-.057 0-.113 0-.169zm-3.82.71c.043.006.085-.008.113-.092-.028 0-.07-.028-.112-.035v.126zm7.078-23.234c.056-.112.056 0 .168-.056l-.056-.113c-.056-.056 0 .169-.056 0-.056.057-.056.113-.056.169zm-.618 20.109l-.056-.113-.169.057c.057.056.113.112.225.056zm5.505-2.36c.07-.07.14-.14.224-.168-.084 0-.154.056-.224.126v.043zm6.417-28.892c-.014.05-.014.106-.014.134.056 0 .07-.042.077-.092l-.063-.042zm-2.935 4.964c0-.056 0-.112-.112-.168l-.056.112c.112.056.056-.056.168.056zm-3.258 3.146c0 .056.169 0 .057-.113-.057 0-.169.057-.057.113zM20 33.67c-.002.051.018.115-.042.115l-.056.057c.109 0 .124-.07.151-.136L20 33.67zM8.555 44.703zm0 0zm11.514-10.075l.113-.112c-.113-.113-.281.112-.113.112zm-4.437 4.55c.112.056.28-.169.337-.225-.112 0-.225.168-.337.225zm-5.582 3.65c.035-.013.077-.027.133-.056-.028-.056-.084-.056-.133-.028v.085zm4.964-23.76l-.168.113c.056.113.224-.056.168-.112zm-2.471 22.469c.056-.056.28-.113.168-.169-.056.056-.225.056-.168.169zm5.29-4.696a.145.145 0 0 1 .046.034c.024-.025.017-.028-.004-.028l-.043-.006zm5.045-11.987l.056-.168h-.112v.168h.056zm-3.146 10.223l.057-.112c0-.112-.225.112-.057.112zm-4.996-16.844c.011.024.045.106-.003.106l.113.112c.052-.053.006-.106-.094-.206l-.016-.012zm7.23-6.48a.077.077 0 0 0-.043.07c.028.028.07.028.105.014l-.063-.084zm-6.748 7.246c.02.014.049.014.077-.042-.028-.085-.07-.099-.098-.085l.02.127zm6.579-7.029c-.014.036-.014.078-.043.078.085.028.113.014.127-.014l-.084-.064zM4.286 42.38c-.113.112.056.112-.113.224h.113c.056-.112 0-.112 0-.225zm14.098-26.232l-.112.112.056.057.112-.113-.056-.056zm3.707-3.707c.057-.056.225-.112.057-.169 0 .057-.113.113-.057.169zM10.183 42.772c.057-.056.225-.056.169-.168-.056.056-.225.056-.169.168zm8.426-28.028l-.112.056c.056.056.168.168.168.112-.112-.056 0-.112-.056-.168zm-1.123 2.197c-.029.022-.029.05.056.106 0-.028.028-.056.049-.084l-.105-.022zm-5.112 4.375c.056-.057.112 0 .169 0l-.057-.113c-.056.056-.168 0-.112.113zM19.9 14.63h.002-.002zm-1.536 19.632c-.035.028-.063.056-.035.084.056-.028.112-.056.14-.084h-.105zm.95-1.212c.034-.025.047-.067.082.004l.057-.056a.13.13 0 0 0-.148-.024l.01.076zm-2.501-16.454l-.057.057c0 .056.113.168.113.056-.113-.056 0-.056-.056-.113zm3.707-1.678c.014-.035.028-.09.056-.119-.028-.028-.042 0-.056.035v.084zm-4.887 2.69c-.056 0 0 .056 0 .168l.112-.112c-.056-.113-.112.056-.112-.057zm3.37-1.966l.056-.057-.056-.112c-.056.056-.056.112 0 .169zm-6.351 5.28a.04.04 0 0 1 .004 0h-.004zm5.228-5.168l.056-.112-.112-.057c0 .057 0 .057.056.169zm.674.112l-.056.113.056.056.056-.113-.056-.056zm3.426 15.56l-.056.168-.112-.056c.056-.057.112-.057.168-.113zM18.974 15.88a.372.372 0 0 0 .084-.07c-.028-.028-.042-.028-.063-.014l-.02.084zM4.398 42.661l.112-.113c-.056 0-.112 0-.168.112h.056zM23.046 9.856l.057-.112-.113-.056c.056.056-.056.112.056.168zm-9.268 9.324c-.056-.112-.056 0-.112 0 0 .113.112 0 .112 0zm8.467-7.825c.026-.03.04-.07.071-.039h.056c-.068-.034-.115-.047-.155-.027l.028.066zm-3.032 3.493c-.028-.007-.042.007-.042.063.028 0 .056.014.084.021l-.042-.084zm-3.806 2.872l-.056.056c.056.056.112.168.112.112-.056-.112.057-.112-.056-.168zm8.06-9.338c-.027.028-.027.07.029.07a.147.147 0 0 0 .077-.028l-.105-.042zm-2.555 4.9l-.056.057.112.056c.056 0 0-.056-.056-.113zM19.114 15.7l.113.112v-.056c-.056-.112-.113-.112-.113-.056zm-.112-.394c-.112-.056 0-.056-.112-.112l-.056.056c.056 0 .112.113.168.056zm-6.01 6.123h.112c0-.112-.112-.056-.112 0zm1.629-2.865v-.112l-.112.056a.174.174 0 0 0 .112.056zm5.842-5.827c.014-.014.028-.042.056-.07-.028 0-.042.014-.056.028v.042zm2.583 12.736v-.112c.057.056.057.056.057.112h-.057zM7.375 44.914c.07-.007.14-.007.225-.007-.085 0-.169.014-.246.028l.021-.021zm0 0c-.07.007-.14.021-.225.05.057 0 .127-.015.204-.029l.021-.021zm2.134-.513c-.056 0-.056.057-.056.057l.056-.057z" fill="#4B8A98" fill-rule="evenodd"/></svg>