<svg width="24" height="45" xmlns="http://www.w3.org/2000/svg"><path d="M15.757 19.241zm0 0c-.279-.557-.335.39-.725.335.056-.223.112-.112.223-.335-.279-.223-.334.446-.725.446-.111-.39-.167-.39-.39-.278.056.111.111.111.167.223-.223.055-.334.223-.557.223.055-.39.278-.223.446-.28-.056-.278-.39.057-.614 0 0 .168.112 0 .168.28-.168 0-.223-.28-.39-.223 0 .111 0 .055.055.111-.167.056-.223.39-.502.335 0-.056.112-.168-.055-.112.055-.223.278-.056.334 0 0-.446-.056-.056-.167-.223-.167.223-.614-.056-.614.39 0 .168.056-.223.112-.167 0 .112-.056.112-.056.112.167.167.223-.112.39-.056-.167.223-.446.167-.613.279-.056-.28.056 0 .112-.168-.056-.167-.056-.167-.112-.167.223-.334.446-.279.78-.279v.056c.28-.446 1.06-.167 1.395-.669h.167c-.056 0-.056-.056-.112-.111l-.167.055c-.111.056-.279.056-.334.056v-.056h-.112c0 .056.056.112-.056.168-.334-.112-.78.39-1.282.278-.112-.055.167-.111.223-.111-.056-.112-.223-.056-.167-.223l-.335.056c-.056.055-.056.111-.056.167 0 .056 0 .111.056.111v-.055c.056.111.112.055.167.055-.055.168-.446.28-.669.223 0-.278.056.056.168-.055-.056-.28-.223-.112-.223 0 0-.056-.056-.223 0-.223 0-.107-.051.041-.105.006.103.107-.006.217.105.217-.168.39-.39.111-.446.055.055-.111.111-.223.223-.278h-.112c0-.056-.056-.056-.056-.056-.055 0-.055 0-.111.056 0 .111-.056.334.056.39 0 .11-.109.111-.165.218-.003-.218-.281.228-.281-.162 0 .278-.28 0-.28.39-.891 0-1.784.502-2.731.78.501.112 1.059-.055 1.505-.445.056 0 0 .111.056.223.279-.335.669-.168 1.003-.39-.055.39-.167.055-.167.334-.056-.167-.223-.112-.223.279-.39 0-.613.334-1.003.223.049-.099.098-.11.109-.112-.05-.103-.102.035-.2-.082.028.096-.014.19.09.138-.501.502-1.282.39-1.728.725 1.115-.056 2.342-.558 3.513-.837l-.056.168c0 .39-.223.334-.39.334-.67.223-1.617.167-2.342.613-.056.112 0 .112.056.223.111-.167.223 0 .334-.111 0 0 .056 0 0 .056h.056c.056 0 .056-.056.056-.056.055-.167.167-.056.223-.056h.055c.112 0 .168-.056.224-.056.055-.055.055-.055.111-.055 0 0 .056 0 .056-.056v-.056c.111 0 .279 0 .279.056h.111C5.776 23.089-1.082 26.49.145 21.639 5.832 15.896 13.304 8.48 14.697.005c.725-.111 3.792 1.617 4.294 1.784-2.398 7.026-6.468 11.932-11.04 17.675 1.673-.278 3.178-1.003 4.907-1.17 3.066-5.019 5.631-10.539 8.196-16.003.725-.167 1.84 1.338 2.286 1.45-2.398 5.241-3.736 8.475-5.855 13.437.558.223 1.896-.334 2.788-.78.056.613-.056 1.17-.167 1.672-.223.056-.39.168-.558.28 0-.057-.055-.057-.055-.224-.67.502-1.227.223-1.617.614.055-.223-.056-.112-.112-.112v-.167l-.111.056c0 .055 0 .111.055.111 0 .39-.111.167-.223.112-.278-.112-.666.498-1.11.17a.445.445 0 0 1-.005-.059c-.111.223-.223 0-.279.167.056.056.056-.055.112.112-.112.223-.39.111-.502.223 0-.112.056-.112.056-.112zm.617-.331a.635.635 0 0 1-.004-.003c.152.253.028.184.004.003zm-7.51 2.145a.344.344 0 0 1-.021-.03.242.242 0 0 1 .01.023l.011.007zm.2.082h.002-.002zm2.012-1.12a.234.234 0 0 0-.003.005l.003-.005zm7.748-1.268v-.01.014-.004zm0 0c.005.052.055.102.055.102l.056-.056h.056c0-.055.056-.111.056-.111.055 0 .055.056.055.056.223-.112.558-.223.837-.335-.837 1.617-2.788 2.286-4.238 2.398-4.962 9.311-5.799 12.935-10.203 24.142-1.729.39-4.517-1.394-4.74-2.676 3.792-9.757 6.245-11.932 10.427-20.407-.446-.056-.948.056-1.673.223.056-.167.39-.223.446-.223h.112c.167-.167.39-.167.557-.167.056-.056.112-.056.112-.168.056-.055.111-.111.111-.167v-.111c0-.056 0-.056-.055-.056.167-.502.446 0 .613-.39.056.278.111-.056.167.334v-.111c.056.055.056.055.056.111v-.056c.446.056.557.112.892-.111v-.056c-.056-.167.111 0 .111.056h.056c.056-.167.112-.167.223-.112 0 .03-.016.044-.04.06.042.046.077-.098.04-.171.168.111.502.279.502-.223.056-.056.112.167.056.223l.167-.056c.056 0 .056 0 0-.056-.056-.167.056-.111.056.056l.056-.056c.055 0 .055-.055.055-.111 0 0 .056 0 .056.056h.112l.055-.39c.056 0 .112.222.112.222-.056.112-.056.112-.112.112h.056l.223-.112h.056c0-.056-.056-.111 0-.111.111.111.111 0 .167-.056 0 0 .056.056.056.111l.167-.055c-.056-.056-.056-.112-.056-.112l.056.056c.168-.056.446-.112.614-.167-.056-.056 0-.168-.112-.112.056-.279.167-.056.167.112h.056c0-.056-.056-.112 0-.223 0 .111.056.167.056.167h.167v-.056c.112.112.167-.279.446-.167 0-.107-.045-.077-.092-.057.046-.138.138.032.26.113-.056-.168.111-.056.167-.112v.056h.055c0-.056-.055-.112.056-.167.112-.112.279-.056.39 0h.056c-.111-.112-.055-.112.056-.056h.056c0-.112 0-.112.056-.056l.223-.056c0-.055-.056-.055 0-.111.055 0 .111-.056.167-.056l-.056.112.112-.056c.055-.056.055-.056.111-.056h.056c0-.056 0-.167.056-.223.111.056.223.223.223-.167.055.111.111.111.223.223v-.056c.055-.111.111-.111.223-.111l.167-.056c.102-.051.11-.103.111-.154l.001-.004zm-2.786.876c-.024.008-.043.042-.058.118.02.02.048.011.075 0l-.017-.118zM2.877 41.99c.223.056-.056.112.112.167.055-.334.501-.613.39-1.003.111 0 .167-.056.167-.112.167-.557.558-1.003.725-1.56.334-.837 1.004-1.562 1.227-2.398 0 0 .111 0 .111-.056s-.111-.223.167-.223c0-.39.558-.948.446-1.171.168 0 .28-.279.168-.39.223 0 .167-.168.167-.223.223 0 .056-.168.111-.223.112-.335.558-.781.614-1.116 0-.223.334-.334.223-.557.39-.167.223-.725.613-.948.112-.613.725-1.282.78-2.063-.334.502-.501 1.115-.836 1.617-.167 0 .056-.056-.111-.056.056.112-.056.223-.223.279l.223-.502c.111 0 .056.112.111.056-.111-.112.112-.167.112-.223 0-.056-.112-.112-.112-.167-.055-.112.056-.28.112-.39.167-.224.167-.558.446-.893.111-.223.056-.446.223-.669a.589.589 0 0 0 .279-.111c0-.056-.167-.335.056-.335-.112-.223.055-.279.167-.446.111-.223 0-.558.167-.78a.12.12 0 0 0 .112-.112c.111-.39.223-.836.334-1.283.112-.446.279-.947.223-1.393L1.651 43.16c.055-.056.167-.056.278 0 .502-.502.167-.892.78-1.45.056.502-.557.948-.501 1.45.167 0 .111-.223.279-.279.334-.111.223-.334.334-.501-.111-.056-.056.111-.167.055.056-.111.111-.279.223-.446zm2.286-2.39a.077.077 0 0 1 0-.005v.005zm0-.005c-.005.11-.334.11-.223.11h-.056c-.111-.057.056-.112.056-.168.112 0 .112 0 .279.056-.112-.112 0-.168.111-.28H5.22c.223 0 .334-.11.167-.278-.056-.056.112.056.112 0-.28-.167 0-.279.055-.39h-.111c-.112-.112.111-.056.056-.112h.223c0-.055-.112-.055-.056-.111-.112 0-.167 0-.335-.056 0 .056-.167-.056-.278-.056-.056.168.055.335-.112.39l.167.056-.055.056c-.168 0-.056 0-.168-.056-.111.056.112.112-.111.112l.223.056a1.219 1.219 0 0 0-.279.167c.112.334-.558.613-.502.892.112.056.112.111.112.111-.112 0-.168 0-.223.056l.111.056s-.054.054-.163.002c.163.165-.06.277.107.388-.278.056-.334.223-.446.335 0 .111 0 .223.056.334-.223.112-.502.502-.39.725-.223 0-.167.167-.223.223 0 .051.046.056.054.056-.277.112-.11.279-.277.446.279.056.334 0 .557 0-.111.056-.055.112-.111.167l.167.056c.167-.111.112-.167.279-.334 0-.056-.22-.111-.278-.167-.112.055.11.167-.112.167-.07-.035-.009-.07.02-.092-.205-.044.019.147-.188.147-.111-.111-.055-.278-.055-.334.055 0 .223.056.334.056l.056-.112c.056.056-.056.112.056.167.055.056.055 0 .111.056-.056-.111.112-.279.279-.279 0-.056 0-.111-.112-.111-.04 0-.139 0-.19.02.025.027.014.003.079.035.111.056-.112.112-.223 0l-.167.168c-.335-.112.111-.112.055-.168h.112c-.056-.055 0-.111-.112-.111.056-.056.168-.056.223-.056l-.278-.111c.111 0 .278 0 .223-.112.111 0 .167 0 .334.056-.167 0-.167.056.056.111-.112.056-.335.056-.223.112.279.056.446-.112.223-.223.167-.056.111-.167.223-.335-.213-.053-.273-.055-.375-.007.101-.048.16-.05.32-.104-.16 0-.218-.05-.318-.103.04-.008.262.103.429.103-.056-.056.334-.223.223-.335-.168 0-.335.112-.223.223h-.168c-.167-.055.056-.055-.055-.111h.111c-.127-.042-.125-.085-.166-.127.049-.003.074.034.222.071-.11-.055-.057-.056-.11-.11.054-.001.054-.057.166-.113.055.056-.056.056.111.056.056-.056.39-.112.167-.223.28-.056.168-.335.39-.39-.166-.056.057-.112-.11-.112.11-.056.167-.279.11-.39.168 0 .057-.168.224-.112 0-.053-.051-.055-.056-.104v-.005zm-1.098 1.408c-.017-.01-.036-.016-.073-.016a.2.2 0 0 1 .057.04l.016-.024zm-.167.271a1.005 1.005 0 0 0-.017-.009l.017.01zm-.002.207zm-.15.642c-.02.008-.033.02-.033.034.047.024.055.018.056.007l-.023-.041zm-.535.146zm.841-2.06a.313.313 0 0 1-.004-.003l.004.002zm8.136-19.964c-.167.167-.557.446-.78.223.111-.056.167-.056.279-.112-.112-.39-.28-.055-.502-.055.056.223.167.055.167.167.056.112-.167.167-.279.223 0-.111 0-.167.056-.223-.223-.056-.334.056-.558.167.056.223.28-.223.28.112-.224-.112-.503.223-.781.223.055-.223.278-.167.39-.279 0-.167.056-.111-.056-.39.614.111 1.004-.39 1.784-.39.056.222-.167.278 0 .334zm-6.46 17.731a.076.076 0 0 0-.005 0h.006zm-.005 0c.11-.001.165-.057.165-.112l-.167-.056c.111-.055.223-.055.111-.167.335.056.223-.279.446-.39l-.167-.056c.056 0 .167 0 0-.056.167 0 .056-.055.223-.055-.056-.056-.056-.056.056-.112-.168-.056-.112.112-.39 0l-.056.056c.167.056.055 0 .223.056-.112 0-.446.055-.28.223-.11 0-.222.111-.11.223-.112 0-.168.055-.168.111-.167 0-.111-.056-.111-.056.111 0 .167-.111.055-.167l-.111.112c.056.055-.167.111.056.223-.223 0-.112.055-.168.167l.446.111s0-.05-.047-.055h-.006zm1.16-2.402a.21.21 0 0 0 .009.004H6.89l-.008-.004zm-.159.227h.002-.002zm-.09.334h.034l-.015-.002-.02.002zM7.95 33.18l.279.055c.167-.055 0-.223.223-.334-.223-.056-.168 0-.335-.056-.111-.056.056-.111.056-.167h-.167c0 .111-.223.223-.223.39.111 0 .111-.056.167 0l.111.056c-.111 0-.111 0-.111.056zm-.558 1.672c.223-.055.112-.278.056-.39h.223c-.223-.111.167-.223-.167-.279-.112.168-.056.335-.335.446.056.112 0 .28-.055.335.334.111.167-.056.278-.112zm1.171-2.286c-.056-.223.39-.502.223-.78 0-.056.168 0 .112-.056l-.112-.056c-.111.223 0 .335-.279.39 0 .168-.111.447-.223.558.335.112.112-.111.28-.056zm-.78 1.394c.055-.111.334-.111.111-.279.223 0 .112-.111.223-.167-.334 0-.334.335-.502.39.168.056-.167.112-.111.223.334.056.279-.167.279-.167zm-2.342 4.126l-.056.112c-.223-.056 0-.168 0-.223-.223 0-.167.223-.279.278.112.056.335.112.446.112.168-.112.056-.167-.055-.223.055 0 .278.056.223 0-.168-.056-.112 0-.28-.056zM15.59 18.851c-.335.056-.67.056-.948.112-.056.055-.056.111-.056.111.279.112.613-.111 1.004-.223zM6.11 36.749c.335 0 .503-.334.391-.446-.223.056-.223.279-.39.446zm3.402-6.524c.223 0 .056-.278.223-.334-.056 0-.056-.056 0-.112-.167-.055-.279.112-.111.223-.112 0-.223.168-.112.223zm-2.042 7.36c-.007.014.007.028.09.056 0-.028.028-.042.035-.056H7.47zm-4.537 5.632c.167-.056-.056-.167.167-.167l-.167-.112c0 .167-.335.279 0 .446v-.056h.056l-.112-.111s.223.056.056 0zm.39.39c.167-.111.056-.167.056-.279l-.167-.055c.167.111-.335.167.111.334zM8.098 33.45a1.173 1.173 0 0 1 .02.01l-.02-.01zm8.774-14.821c-.111.056-.111.167-.279.112 0 .39.223.223.223.111v-.111c.056 0 .056 0 .056-.112zm-7.694 12.49c.111-.056.39-.223 0-.335.055.167-.168.223 0 .335zm-1.394-8.81c0-.279-.056-.056-.112 0 0-.056-.111-.223-.111 0 .111.167.278.056.39-.056-.056 0-.056 0-.167.056zm1.282 12.21c0-.055.223 0 .167-.11-.223 0-.334.055-.334.167h.334c.056-.056-.111-.056-.167-.056zm1.06-14.385c-.056-.39-.224-.167-.224 0 .056.112.168 0 .223 0zM9.177 31.23l.055-.056-.167-.055s.056.055-.111 0c0 .111.055.055-.056.167l.279.056c-.112-.056-.056-.112-.112-.168 0 0 .112 0 .112.056zm.557-10.426c-.056.111-.334.111-.334.278.167-.167.334.056.334-.278zm-1.157.348c-.056.056-.097.125-.07.153.056-.083.126-.055.175-.048l-.105-.105zm-.794 15.32c-.056.055 0 .167.278.222-.167-.111-.223-.167-.055-.223-.168-.055 0 .112-.223 0zm-4.795 6.467l.223.056c-.112-.056-.168-.112-.056-.167-.056 0-.112 0-.223-.056-.112.056.056.111.056.167zm8.698-21.968l.055-.056c0-.056 0-.111-.055-.167.111 0 .167.111.223.111 0 .168-.112.056-.223.112zm2.544-.892c.048.014.104.055.132.055 0 .084-.042.112-.09.112l-.042-.167zm0 0c-.05-.014-.091 0-.091.111a.21.21 0 0 0 .132.056l-.041-.167zm-5.053 10.65c.39.11.223-.112.278-.112-.167 0-.167.111-.278.111zm-1.562 2.787l-.111.223c.167 0 .111-.111.111-.167v-.056zm.813-.74c.009.003.017.008.024.015 0-.006 0-.012-.002-.018l-.022.002zM9.847 29.5c-.056 0-.168.111-.223.223h.111c-.056-.056.112-.112.112-.223zm-2.433-7.095c.049 0 .09-.042.09-.098-.055.028-.083.014-.11-.007l.02.105zm1.638 7.276c-.014.056-.014.125-.042.153.112 0 .126-.042.126-.09l-.084-.063zm3.29-10.475c-.028.02-.042.09-.042.146 0-.028.014-.014.042 0v-.146zm0 0c.028-.021.07.006.125.146a.13.13 0 0 1-.125 0v-.146zM9.512 30.28c-.111-.056-.111.112-.056.112.112.056.168-.056.056-.112zM2.424 43.057c-.007.048.035.104.118.104-.027-.028-.041-.056-.034-.084l-.084-.02zm7.806-14.671c-.02.041-.02.083.063.111 0-.028.028-.07.042-.111h-.105zm-4.05 4.173a.147.147 0 0 1-.013.008.447.447 0 0 0 .022.007l-.008-.015zm2.105-.382v.056c-.055.055-.167.111 0 .111 0 0 .056 0 0-.056.056 0 .112-.111 0-.111zm.614-.67c-.056.057 0 .168-.056.168h.112c0-.056.111-.111-.056-.167zM3.88 42.382l.111.055.056-.111-.112-.056-.055.112zm3.512-4.405c-.055-.056-.167-.056-.055-.112-.168-.056-.112 0-.168.056.056.056.112.056.223.056zm.892-5.52h-.111c0 .056-.167.111 0 .167l.111-.167zm.614-1.394c-.056-.056.111-.112-.056-.167 0 .055-.167.111.056.167zm-1.29 3.722c-.034.028-.048.07.007.125 0-.056.056-.084.098-.104l-.105-.021zm2.416-5.898l-.011.001c.02.02-.005.026-.03.03l.041-.03zm-.041.032c-.044.007-.09.01.086.08-.056-.11.167-.055.111-.11-.103-.052-.11-.008-.156-.002l-.041.032zm3.654-4.38l.056-.111c-.112-.056-.223.056-.056.111zm-4.293 9.535c-.167-.056-.056.055-.167 0-.056.055-.056.111.111.111-.111-.056-.056-.056.056-.111zm-3.067 2.843v-.111c-.111-.056-.056.056-.167 0 0 .056.056.056.167.111zm3.624-7.806v.056l.223.056c-.055-.056-.111-.112-.223-.112zM3.376 43.067c.028.021.04.058.003.094.111.056.111 0 .111-.056l-.114-.038zm4.638-9.043c-.035.007-.063.02-.063.049.056.028.097.028.125.014l-.062-.063zm-.683 3.652c-.007.02.007.049.118.077-.028-.028 0-.056.007-.077h-.125zm-3.896 5.652l.055-.055-.167-.056c-.056 0 0 .056.112.111zm6.077-9.813l.112.056.055-.056c-.111-.056-.167-.056-.167 0zM6.53 35.557c-.014.049-.028.105-.084.133.112-.028.14-.07.147-.112l-.063-.02zm-.864 1.638l-.056.112c.112.055.167-.056.056-.112zm4.62-9.005c-.006.028.008.056.12.084-.029-.028-.015-.056-.015-.084h-.104zM6.893 38.31v.056c.111 0 .223.056.223 0-.168-.056-.056 0-.223-.056zm2.341-8.029h-.055l-.056.112h.111v-.112zm-2.62 8.531l.167.056v-.056c-.056-.056-.167-.056-.167 0zM9.86 29.39c-.014.028-.014.056-.014.056.055.028.07.014.076-.014l-.062-.042zM6.5 36.303h.112c-.056-.056.111-.056-.056-.112-.056.056-.056.112-.056.112zm1.561-2.51l-.055.057c.167.055.278 0 .055-.056zm1.025-4.258c-.007.021.007.05.09.077 0-.028.028-.056.035-.077h-.125zM5.99 37.93c.015.024.033.046.008.046.074.024.061.006.043-.018l-.05-.028zm1.646-4.505c-.007.02.007.034.09.034 0 0 .029-.014.036-.034h-.126zm-1.93 3.714c-.014.014-.014.028.07.056 0-.028.027-.056.034-.077l-.104.021zm4.251-4.46h.167v-.056c-.111 0-.111.056-.167.056zm-2.565 1.505l.056-.111h-.056l-.111.055.111.056zm1.896-2.788h.112v-.055l-.056-.056-.056.111zm.67-2.174c-.168-.056-.112.056 0 .056 0 0 .055-.056 0-.056zm-.057 3.457l-.055-.056c0 .056-.112.112.055.112v-.056zm-2.007 1.45v.055c.167.056.167-.056 0-.056zm2.342-9.48l.056-.166-.112.223s.112 0 .056-.056zM6.836 35.077c.111 0 .056-.111.056-.111-.112 0-.056.056-.056.111zm-3.569 7.806c.112 0-.111-.055-.055-.055h-.056c0 .055 0 .055.111.055zm3.443-6.774c-.014.014-.014.028-.042.028.028 0 .07 0 .105-.007l-.063-.021zm-.042-.753c.168-.056.168-.279.056-.056-.056 0-.056.056-.056.056zm2.621-1.394v.056h.056s.056-.056-.056-.056zm.739-4.879c-.028.014-.042.028-.07.028.028 0 .07-.014.112-.028h-.042zM3.825 42.604c-.112-.056-.167-.056-.223-.056l.223.056zm-.112-1.116c.112.056.112 0 .168 0h-.168zM7.17 37.92l-.055-.056c0 .056 0 .056.055.056zm-1.672-.335l-.056-.055s0 .055.056.055z" fill="#4B8A98" fill-rule="evenodd"/></svg>