<svg xmlns="http://www.w3.org/2000/svg" width="100" height="19"><path fill="#FFF" fill-rule="evenodd" d="M0 6.048c0 3.378 2.707 6.126 6.057 6.126 3.34 0 6.057-2.738 6.057-6.126 0-3.27-2.756-4.935-4.781-4.935-3.282 0-4.412 3.32-4.412 3.32l.04.01s1.187-2.315 3.71-2.315c2.171 0 3.846 1.772 3.846 3.91 0 2.492-1.996 4.501-4.45 4.501C3.72 10.54 1.5 8.717 1.5 5.536 1.5 3.044 2.844.916 5.074.039L5.064 0C2.19.492 0 3.004 0 6.048zM66.15 1.28l-4.79 10.717h1.674l1.198-2.758h5.152l1.188 2.758h1.733L67.514 1.28H66.15zm.653 1.99l1.957 4.56h-3.934l1.977-4.56zM16.837 1.35v10.637h1.568v-3.97h2.561l2.873 3.97h1.996L22.68 7.742c1.626-.414 2.61-1.566 2.61-3.132v-.07c-.04-1.94-1.568-3.2-3.895-3.2h-4.558v.01zm1.568 1.497h2.902c1.305 0 2.123.492 2.318 1.379.029.137.048.275.048.433 0 1.152-.935 1.891-2.376 1.891h-2.882V2.847h-.01zM92.2 1.359v10.638h7.8V10.51h-6.232V7.377h5.511V5.89h-5.511V2.847h6.154V1.359H92.2zm-7.265 0l-3.564 5.398-3.564-5.398h-1.48v10.638h1.538v-7.87l3.35 5.073.146.216.147-.216 3.35-5.083v7.88h1.577V1.359h-1.5zm-33.947 0v10.638h7.255V10.49h-5.677V1.35h-1.578v.01zm-12.64 0v10.638h1.568V7.555h5.463V6.067h-5.463v-3.21h6.116V1.358h-7.684zm-7.595 10.638h1.568V1.359h-1.568v10.638zm-.253 4.669c0 .512.32.738 1.022.896.643.138.789.295.789.59 0 .316-.273.533-.682.533-.419 0-.73-.148-1.042-.434l-.214.257c.37.334.76.492 1.246.492.604 0 1.042-.345 1.042-.877 0-.472-.311-.728-.993-.876-.672-.148-.828-.305-.828-.601 0-.286.254-.502.653-.502.311 0 .594.098.876.334l.205-.265c-.312-.256-.623-.375-1.071-.375-.585-.02-1.003.335-1.003.828zm41.123-.818v2.463l-1.918-2.463h-.321v3.083h.33V16.41l1.968 2.521h.272v-3.083h-.33zm-10.078 0v3.083h2.22v-.325h-1.88v-1.074h1.666v-.315h-1.666v-1.054h1.86v-.315h-2.2zm-7.966 0v3.083h1.061c.954 0 1.617-.67 1.617-1.546 0-.867-.663-1.537-1.617-1.537h-1.06zm.34.315h.711c.77 0 1.266.542 1.266 1.222 0 .69-.486 1.211-1.266 1.211h-.71v-2.433zm-7.936-.315v3.083h2.22v-.325h-1.87v-1.074h1.656v-.315h-1.655v-1.054h1.85v-.315h-2.2zm-6.953.01l-.837 2.57-.867-2.56h-.37l1.09 3.102h.293l.837-2.501.838 2.501h.292l1.09-3.102h-.36l-.867 2.56-.837-2.57h-.302zm38.758 1.605H99.99v-.226H77.788v.226zm-76.736 0h23.887v-.226H1.052v.226z"/></svg>